/* XPM */
static char *result[] = {
/* columns rows colors chars-per-pixel */
"64 64 95 2 ",
"   c gray2",
".  c #06090B",
"X  c #0D0D0D",
"o  c #0F1011",
"O  c #141414",
"+  c #181717",
"@  c #141719",
"#  c #14191C",
"$  c #1D1C1C",
"%  c #201F1E",
"&  c #21201E",
"*  c #131D22",
"=  c #162127",
"-  c #12232C",
";  c #18262D",
":  c #0C2634",
">  c #0F2C3B",
",  c #122732",
"<  c #112936",
"1  c #102B38",
"2  c #222222",
"3  c #292725",
"4  c #262828",
"5  c #2C2C2B",
"6  c #322F2C",
"7  c #34312F",
"8  c #2B3336",
"9  c #2F3638",
"0  c #343434",
"q  c #393633",
"w  c #3B3936",
"e  c #363B3C",
"r  c #393939",
"t  c #413F3C",
"y  c #42403E",
"u  c #102F40",
"i  c #0E3447",
"p  c #0F384E",
"a  c #0E3C53",
"s  c #003B5A",
"d  c #243A45",
"f  c #324147",
"g  c #304249",
"h  c #2D4754",
"j  c #314955",
"k  c #004265",
"l  c #0C4361",
"z  c #00466A",
"x  c #00486E",
"c  c #0C4C6D",
"v  c #104A68",
"b  c #004B72",
"n  c #0B4F72",
"m  c #095177",
"M  c #05527A",
"N  c #0A567E",
"B  c #135577",
"V  c #1B5775",
"C  c #234C60",
"Z  c #28566C",
"A  c #325161",
"S  c #015581",
"D  c #005886",
"F  c #005B8B",
"G  c #1F6A8F",
"H  c #026294",
"J  c #086291",
"K  c #00659A",
"L  c #076A9E",
"P  c #0F6998",
"I  c #1F7099",
"U  c #256282",
"Y  c #016CA3",
"T  c #006FA9",
"R  c #0E70A3",
"E  c #0272AC",
"W  c #0376B2",
"Q  c #057AB6",
"!  c #0B7BB6",
"~  c #017CBC",
"^  c #157CB0",
"/  c #007EC0",
"(  c #0A81BE",
")  c #0182C5",
"_  c #0085CA",
"`  c #0B89CA",
"'  c #1085C2",
"]  c #0189D1",
"[  c #008FD9",
"{  c #0292DC",
"}  c #0295E3",
"|  c #0198E7",
" . c #009BEC",
".. c #009FF2",
"X. c None",
/* pixels */
"X.X.X.X.X.X.X.X.X.X.X.X.X.X.X.X.X.X.X.X.X.X.X.X.X.X.X.X.X.X.X.X.X.X.X.X.X.X.X.X.X.X.X.X.X.X.X.X.X.X.X.X.X.X.X.X.X.X.X.X.X.X.X.X.",
"X.X.X.X.X.X.X.X.X.X.X.X.X.X.X.X.X.X.X.X.X.X.X.X.X.X.X.X.X.X.X.X.X.X.X.X.X.X.X.X.X.X.X.X.X.X.X.X.X.X.X.X.X.X.X.X.X.X.X.X.X.X.X.X.",
"X.X.X.X.X.X.X.X.X.X.X.X.X.X.X.X.X.X.X.X.X.X.X.X.X.X.X.X.X.X.X.X.X.X.X.X.X.X.X.X.X.X.X.X.X.X.X.X.X.X.X.X.X.X.X.X.X.X.X.X.X.X.X.X.",
"X.X.X.X.X.X.X.X.X.X.X.X.X.X.X.X.X.X.X.X.X.X.X.X.X.X.X.X.X.r r r r r r X.X.X.X.X.X.X.X.X.X.X.X.X.X.X.X.X.X.X.X.X.X.X.X.X.X.X.X.X.",
"X.X.X.X.X.X.X.X.X.X.X.X.X.X.X.X.X.X.X.X.X.X.X.X.r r r r r r r r r r r r r r r r X.X.X.X.X.X.X.X.X.X.X.X.X.X.X.X.X.X.X.X.X.X.X.X.",
"X.X.X.X.X.X.X.X.X.X.X.X.X.X.X.X.X.X.X.X.X.r r r r r r r r r r r r r r r r r r r r r 0 X.X.X.X.X.X.X.X.X.X.X.X.X.X.X.X.X.X.X.X.X.",
"X.X.X.X.X.X.X.X.X.X.X.X.X.X.X.X.X.X.X.r r r r r r r r r r r r r r r r r r r r r r r r r r X.X.X.X.X.X.X.X.X.X.X.X.X.X.X.X.X.X.X.",
"X.X.X.X.X.X.X.X.X.X.X.X.X.X.X.X.X.r r r r r r r r 0 2 + X.X.X.X.X.X.X.X.X.5 0 r r r r r r r 0 X.X.X.X.X.X.X.X.X.X.X.X.X.X.X.X.X.",
"X.X.X.X.X.X.X.X.X.X.X.X.X.X.X.X.r r r r r r 5 $ X.X.X.X.X.X.X.X.X.X.X.X.X.X.X.X.2 0 0 r r r r r 5 X.X.X.X.X.X.X.X.X.X.X.X.X.X.X.",
"X.X.X.X.X.X.X.X.X.X.X.X.X.X.0 r r 0 r 0 5 X.X.X.X.X.X.X.X.X.X.X.X.X.X.X.X.X.X.X.X.X.X.5 r r 0 r r 0 X.X.X.X.X.X.X.X.X.X.X.X.X.X.",
"X.X.X.X.X.X.X.X.X.X.X.X.X.r r r r r 5 O X.X.X.X.X.X.X.X.X.X.X.X.X.X.t t w X.X.X.X.X.X.X.X.0 r r r r r X.X.X.X.X.X.X.X.X.X.X.X.X.",
"X.X.X.X.X.X.X.X.X.X.X.X.r 0 r 0 0 2 X.X.X.X.X.X.X.X.X.X.X.X.|  .{ w 0 $ O O X.X.X.X.X.X.X.X.4 r r 0 r 0 X.X.X.X.X.X.X.X.X.X.X.X.",
"X.X.X.X.X.X.X.X.X.X.X.r 0 r 0 0 O X.X.X.X.X.X.X.X. .............| w $ O O O X X.X.X.X.X.X.X.X.X.0 r 0 r 0 X.X.X.X.X.X.X.X.X.X.X.",
"X.X.X.X.X.X.X.X.X.X.0 0 r 0 0 X.X.X.X.X.X.X.X. ................. .q + O O O O X.X.X.X.X.X.X.X.X.X.0 0 0 0 0 X.X.X.X.X.X.X.X.X.X.",
"X.X.X.X.X.X.X.X.X.0 0 0 0 0 X.X.X.X.X.X.X..................... .~ w $ O O O O o X.X.X.X.X.X.X.X.X.X.0 r 0 0 0 X.X.X.X.X.X.X.X.X.",
"X.X.X.X.X.X.X.X.X.r 0 0 0 X.X.X.X.X.X.X...................{ K X.X.q $ O O O O O X.X.X. .X.X.X.X.X.X.X.0 0 0 0 5 X.X.X.X.X.X.X.X.",
"X.X.X.X.X.X.X.X.0 0 0 0 O X.X.X.X.X.A | ............| Y X.X.X.X.X.q $ O O O O O =  ......._ X.X.X.X.X.X.0 0 0 0 X.X.X.X.X.X.X.X.",
"X.X.X.X.X.X.X.0 0 0 r % X.X.X.X.t y f h  ..... ./ z X.X.X.X.X.X.X.q $ O O O O O O Y ........) X.X.X.X.X.5 0 0 0 0 X.X.X.X.X.X.X.",
"X.X.X.X.X.X.X.0 0 0 5 X.X.X.X.X.w 5 + O m _ D X.X.X.X.X.X.X.X.X.X.q $ O O O O O O - | ........X.X.X.X.X.X.0 0 0 0 X.X.X.X.X.X.X.",
"X.X.X.X.X.X.0 0 0 0 o X.X.X.X.X.0 O O O O X X.X.X.X.X.X.X.X.X.X. .w $ O O O O O O O N ....) S X.X.X.X.X.X.X.0 0 0 5 X.X.X.X.X.X.",
"X.X.X.X.X.X.0 0 0 2 X.X.X.X.X.{ q O O O O O X.X.X.X.X.X.X.X..... .r $ O O O O O O O # S X.X.X.X.X.X.X.X.X.X.5 0 0 0 X.X.X.X.X.X.",
"X.X.X.X.X.0 0 0 0 X.X.X.X.X.X.X.w + O O O O O X.X.X.X. ...........r $ O O O O O O O O O X.X.X.X.X.X.X.X.X.X.X.0 0 0 5 X.X.X.X.X.",
"X.X.X.X.X.0 6 8 5 X.X.X.X.X.X.X.w + O O O O O * } ................e $ O O O O O O O O O X.X.X.X.X.X.X.X.X.X.X.5 6 0 7 X.X.X.X.X.",
"X.X.X.X.X.0 6 0 + X.X.X.X.X.X.X.w % O O O O O O J ................e $ O O O O O O O O O O X.X.X. ...| X.X.X.X.X.6 0 0 = X.X.X.X.",
"X.X.X.X.8 6 6 6 X.X.X.X.X.X.X.X.q 3 O O O O O O + / ........ .~ F w % O O O O O O O O O O l  .........X.X.X.X.X.6 6 6 4 X.X.X.X.",
"X.X.X.X.6 6 8 4 X.X.X.X.X.X.X.X.V 6 O O O O O O O - }  ._ D X.X.X.0 % O O O O O O O O O O * } ........W X.X.X.X.6 8 0 5 X.X.X.X.",
"X.X.X.X.8 6 6 = X.X.X.X.X. .....^ 6 O O O + O O O O 1 X.X.X.X.X.X.q $ O O O O + O O O O O O c ........[ X.X.X.X.5 8 6 8 X.X.X.X.",
"X.X.X.X.6 6 6 + X.X.X.X.........' 7 O O O O O O O O O X X.X.X.X.X.q $ O O O O ; 5 O O O O O + _ .. ./ b X.X.X.X.X.6 6 5 $ X.X.X.",
"X.X.X.X.0 5 5 X.X.X.X.X.........} q O O O O O O O O O O X.X.X.X.X.0 % O O O O p U + O O O O O i D X.X.X.X.X.X.X.X.6 6 6 * X.X.X.",
"X.X.X.5 6 5 5 X.X.X.X.| ..........e O O O O O O O O O O O X.X.X.X.e % O O O O a } 8 O O O O O O . X.X.X.X.X.X.X.X.5 8 6 2 X.X.X.",
"X.X.X.5 6 8 5 X.X.X.X. .......} Y r + O O O O O O O O O O O ] ....f & O O O O l ..I $ O O O O O O X.X.X.X.X.X.X.X.6 6 5 4 X.X.X.",
"X.X.X.5 5 5 5 X.X.X.X. .../ k X.X.7 % O O O O O O O O O O O c ....f & O O O O i S X.6 O O O O O O X X.X.X.X.X.X.X.5 5 6 2 X.X.X.",
"X.X.X.5 5 5 5 X.X.X.X.X.X.X.X.X.X.7 & O O O O O # O O O O O O L ..g & O O O O O X.X.X.% O O O O O O W ..{ X.X.X.X.5 5 5 2 X.X.X.",
"X.X.X.5 5 5 5 X.X.X.X.X.X.X.X.X.X.X.4 O O O O O v = O O O O O # _ g & O O O O X X.X.X.0 O O O O O O l ..) X.X.X.X.5 5 5 2 X.X.X.",
"X.X.X.5 5 5 5 X.X.X.X.X.X.X.X.X.X.X.5 O O O O O c ( + O O O O O - 0 & O O O O X X.X.X.X.4 + O O O O O ( Y X.X.X.X.5 5 5 2 X.X.X.",
"X.X.X.X.5 5 5 X.X.X.X.X.X.X.X.X. .` 0 O O O O O p ..R O O O O O O % & O O O O X X.X. ...U # O O O O O u b X.X.X.X.5 5 5 $ X.X.X.",
"X.X.X.X.5 4 5 O X.X.X.X.X. .......} q O O O O O <  .) , O O O O O O + O O O O m  ....... .d O O O O O O X X.X.X.X.5 5 5 O X.X.X.",
"X.X.X.X.5 5 5 $ X.X.X.X.............r + O O O O O X.X.X.O O O O O O O O O O O L ..........' $ O O O O O O X.X.X.4 5 5 5 X.X.X.X.",
"X.X.X.X.5 5 5 2 X.X.X.X.} ..........j $ O O O O O X.X.X.X.O O O O O O O O O O E ............V O O O O O O o X.X.5 5 5 2 X.X.X.X.",
"X.X.X.X.2 5 5 5 X.X.X.X.X.........{ h % O O O O O X.X.X.X.X.# O O O O O O O O W ..........} M + O O O O O o X.X.4 4 5 2 X.X.X.X.",
"X.X.X.X.X.5 2 5 + X.X.X.X.|  .) z X.3 & O O O O O X X.X.X. .` * O O O O O O O ~ .... .W k X.X.X.O O + O X X.X.X.5 4 3 + X.X.X.X.",
"X.X.X.X.X.5 4 5 2 X.X.X.X.X.X.X.X.X.5 4 O O O O O : ~  .......! + O O O O O O W E k X.X.X.X.X.X.O O X X.X.X.X.4 3 4 5 X.X.X.X.X.",
"X.X.X.X.X.4 4 4 4 X.X.X.X.X.X.X.X.X.X.5 O O O O O c ............P O O O O O O   X.X.X.X.X.X.X.X.X.X.X.X.X.X.X.3 5 4 % X.X.X.X.X.",
"X.X.X.X.X.X.4 4 4 2 X.X.X.X.X.X.X.X.X.6 O O O O O a ..............B O O O O O X.X.X.X.X.X.X.X. . .X.X.X.X.X.4 3 4 4 X X.X.X.X.X.",
"X.X.X.X.X.X.4 4 3 3 X.X.X.X.X.X.X.X.{ q O O O O O < .......... .) k O O O O O X.X.X.X.X. .......X.X.X.X.X.X.4 4 2 2 X.X.X.X.X.X.",
"X.X.X.X.X.X.X.4 4 4 2 X.X.X.X.X.X... .e + O O O O * ......] H X.X.X.X.O O O O X.X.X. .........Y X.X.X.X.X.4 4 4 4 O X.X.X.X.X.X.",
"X.X.X.X.X.X.X.4 4 3 2 $ X.X.X.X.X.{ ..j + O O O O O ] Y X.X.X.X.X.X.X.X.O O < _ ............Y X.X.X.X.X.2 2 2 4 % X.X.X.X.X.X.X.",
"X.X.X.X.X.X.X.X.2 4 4 4 X.X.X.X.X.X.) Z & O O O O O . X.X.X.X.X.X.X.X.X.W Q ..............H X.X.X.X.X.X.3 4 4 2 X.X.X.X.X.X.X.X.",
"X.X.X.X.X.X.X.X.% 2 2 4 2 X.X.X.X.X.X.9 2 O O O O O . X.X.X.X.X.X.X...................| z X.X.X.X.X.X.2 2 2 2 # X.X.X.X.X.X.X.X.",
"X.X.X.X.X.X.X.X.X.2 4 2 2 2 X.X.X.X.X.X.3 O O O O O X X.X.X.X. .....................~ X.X.X.X.X.X.X.2 4 2 2 $ X.X.X.X.X.X.X.X.X.",
"X.X.X.X.X.X.X.X.X.X.2 2 2 4 2 X.X.X.X.X.5 O O O O O O X.} ......................_ s X.X.X.X.X.X.X.2 2 4 2 2 X.X.X.X.X.X.X.X.X.X.",
"X.X.X.X.X.X.X.X.X.X.X.2 2 2 2 2 X.X.X.X.6 O O O O O J ........ ...........[ T X.X.X.X.X.X.X.X.X.2 2 2 2 2 X.X.X.X.X.X.X.X.X.X.X.",
"X.X.X.X.X.X.X.X.X.X.X.X.2 2 2 2 2 + X.X.7 O O X X.X.X.X.X.E ~ ~ ~ W K b X.X.X.X.X.X.X.X.X.X.2 2 2 3 2 2 X.X.X.X.X.X.X.X.X.X.X.X.",
"X.X.X.X.X.X.X.X.X.X.X.X.X.2 2 2 2 2 2 X.X.X X.X.X.X.X.X.X.X.X.X.X.X.X.X.X.X.X.X.X.X.X.X.X.* 2 2 2 2 $ X.X.X.X.X.X.X.X.X.X.X.X.X.",
"X.X.X.X.X.X.X.X.X.X.X.X.X.X.% 2 2 2 2 2 % X.X.X.X.X.X.X.X.X.X.X.X.X.X.X.X.X.X.X.X.X.X.2 2 2 2 2 2 $ X.X.X.X.X.X.X.X.X.X.X.X.X.X.",
"X.X.X.X.X.X.X.X.X.X.X.X.X.X.X.+ 2 % 2 % 2 2 % X.X.X.X.X.X.X.X.X.X.X.X.X.X.X.X.X.X.% % 2 2 2 2 2 O X.X.X.X.X.X.X.X.X.X.X.X.X.X.X.",
"X.X.X.X.X.X.X.X.X.X.X.X.X.X.X.X.X.$ 2 2 2 2 & 2 2 % % X.X.X.X.X.X.X.X.X.X.2 2 % 2 2 2 2 % 2 + X.X.X.X.X.X.X.X.X.X.X.X.X.X.X.X.X.",
"X.X.X.X.X.X.X.X.X.X.X.X.X.X.X.X.X.X.X.$ 2 $ % = % % 2 % 2 % 2 & * 2 % % 2 * & & $ 2 $ 2 $ X X.X.X.X.X.X.X.X.X.X.X.X.X.X.X.X.X.X.",
"X.X.X.X.X.X.X.X.X.X.X.X.X.X.X.X.X.X.X.X.X.+ 2 2 2 * 2 & % % & & & 2 % 2 % 2 % 2 % % + X X.X.X.X.X.X.X.X.X.X.X.X.X.X.X.X.X.X.X.X.",
"X.X.X.X.X.X.X.X.X.X.X.X.X.X.X.X.X.X.X.X.X.X.X.O $ % & & * % = 2 & % % % % % * + O X.X.X.X.X.X.X.X.X.X.X.X.X.X.X.X.X.X.X.X.X.X.X.",
"X.X.X.X.X.X.X.X.X.X.X.X.X.X.X.X.X.X.X.X.X.X.X.X.X.X.X.O O + + + + + + + o X.X.X.X.X.X.X.X.X.X.X.X.X.X.X.X.X.X.X.X.X.X.X.X.X.X.X.",
"X.X.X.X.X.X.X.X.X.X.X.X.X.X.X.X.X.X.X.X.X.X.X.X.X.X.X.X.X.X.X.X.X.X.X.X.X.X.X.X.X.X.X.X.X.X.X.X.X.X.X.X.X.X.X.X.X.X.X.X.X.X.X.X.",
"X.X.X.X.X.X.X.X.X.X.X.X.X.X.X.X.X.X.X.X.X.X.X.X.X.X.X.X.X.X.X.X.X.X.X.X.X.X.X.X.X.X.X.X.X.X.X.X.X.X.X.X.X.X.X.X.X.X.X.X.X.X.X.X.",
"X.X.X.X.X.X.X.X.X.X.X.X.X.X.X.X.X.X.X.X.X.X.X.X.X.X.X.X.X.X.X.X.X.X.X.X.X.X.X.X.X.X.X.X.X.X.X.X.X.X.X.X.X.X.X.X.X.X.X.X.X.X.X.X."
};
