/* XPM */
static char *result[] = {
/* columns rows colors chars-per-pixel */
"32 32 161 2 ",
"   c #0C0D0D",
".  c gray5",
"X  c gray6",
"o  c #101010",
"O  c #111111",
"+  c gray7",
"@  c #131313",
"#  c #131314",
"$  c #131517",
"%  c gray8",
"&  c #141515",
"*  c #151515",
"=  c #161616",
"-  c gray9",
";  c #181817",
":  c #11171A",
">  c #13181A",
",  c #16191B",
"<  c #181818",
"1  c #191818",
"2  c #191918",
"3  c #191919",
"4  c #1A1919",
"5  c #1A1A19",
"6  c #1B1A19",
"7  c gray10",
"8  c #1B1B1B",
"9  c #1C1B1A",
"0  c #1C1C1B",
"q  c #1D1C1B",
"w  c #1D1C1C",
"e  c #1D1D1D",
"r  c #1F1E1D",
"t  c #1E1E1E",
"y  c gray12",
"u  c #21201F",
"i  c #0E1A21",
"p  c #131B20",
"a  c #131C20",
"s  c #0F222C",
"d  c #1D2325",
"f  c #122028",
"g  c #14252E",
"h  c #112733",
"j  c #112A38",
"k  c #102C3B",
"l  c #132D3A",
"z  c #1C2F39",
"x  c #202020",
"c  c gray13",
"v  c #222120",
"b  c #222222",
"n  c #232323",
"m  c gray14",
"M  c #252525",
"N  c #262524",
"B  c gray15",
"V  c #272727",
"C  c #282624",
"Z  c #282725",
"A  c #2A2826",
"S  c #282828",
"D  c gray16",
"F  c #2A2A2A",
"G  c gray17",
"H  c #2C2B29",
"J  c #2F2D2A",
"K  c #2C2C2C",
"L  c #2D2D2D",
"P  c gray18",
"I  c #2F2F2F",
"U  c #322F2C",
"Y  c #253137",
"T  c #2A363C",
"R  c gray19",
"E  c #313131",
"W  c #323232",
"Q  c gray20",
"!  c #353331",
"~  c #343434",
"^  c #353535",
"/  c gray21",
"(  c #373737",
")  c gray22",
"_  c #393939",
"`  c #3A3A3A",
"'  c #0F3346",
"]  c #0F3549",
"[  c #0E384E",
"{  c #153343",
"}  c #063B57",
"|  c #253841",
" . c #223D4B",
".. c #0B405B",
"X. c #0A425E",
"o. c #244250",
"O. c #2A4958",
"+. c #0D4460",
"@. c #0C4461",
"#. c #0C4664",
"$. c #00476B",
"%. c #1C516C",
"&. c #0B4F72",
"*. c #02527C",
"=. c #2A4E60",
"-. c #2B5366",
";. c #215874",
":. c #255F7D",
">. c #0E5D85",
",. c #005C8C",
"<. c #1E6589",
"1. c #1E698F",
"2. c #056191",
"3. c #006194",
"4. c #096290",
"5. c #006599",
"6. c #09699B",
"7. c #0A6B9E",
"8. c #196A93",
"9. c #1E6990",
"0. c #1B6D96",
"q. c #1C6C95",
"w. c #196E9A",
"e. c #19709C",
"r. c #0A70A5",
"t. c #0070AB",
"y. c #0073AF",
"u. c #0074B1",
"i. c #047BB8",
"p. c #047EBD",
"a. c #0E7FB9",
"s. c #007EC0",
"d. c #0E80BC",
"f. c #0082C5",
"g. c #0083C7",
"h. c #0384C7",
"j. c #0084C9",
"k. c #0086CB",
"l. c #0088CF",
"z. c #008BD3",
"x. c #038BD2",
"c. c #008CD5",
"v. c #028CD4",
"b. c #0094E1",
"n. c #0096E5",
"m. c #0098E7",
"M. c #0098E8",
"N. c #0099E9",
"B. c #009AEA",
"V. c #009BEC",
"C. c #009CED",
"Z. c #009CEE",
"A. c #009DEE",
"S. c #019DEE",
"D. c #009DEF",
"F. c #009DF0",
"G. c #009EF0",
"H. c #009EF1",
"J. c #009FF1",
"K. c #009FF2",
"L. c None",
/* pixels */
"L.L.L.L.L.L.L.L.L.L.L.L.L.L.L.L.L.L.L.L.L.L.L.L.L.L.L.L.L.L.L.L.",
"L.L.L.L.L.L.L.L.L.L.L.L.L.L.L.L.L.L.L.L.L.L.L.L.L.L.L.L.L.L.L.L.",
"L.L.L.L.L.L.L.L.L.L.L._ ` ` ` ` ` ` ` _ ( L.L.L.L.L.L.L.L.L.L.L.",
"L.L.L.L.L.L.L.L.L._ _ _ ( R G S S K E ( _ _ ( L.L.L.L.L.L.L.L.L.",
"L.L.L.L.L.L.L.( ) ) I 8 L.L.L.L.L.L.L.L.L.W ) ) W L.L.L.L.L.L.L.",
"L.L.L.L.L.L.( ( Q < L.L.L.L.L.L.-.! r L.L.L.L.^ ( ~ L.L.L.L.L.L.",
"L.L.L.L.L./ ( P L.L.L.L.D.K.K.K.1.; % L.L.L.L.L.W ( W L.L.L.L.L.",
"L.L.L.L.^ / L L.L.L.D.K.K.K.C.s.o.; % @ L.L.L.L.L.W / L L.L.L.L.",
"L.L.L.L.^ E L.L.L.:.H.G.l.,.L.L.U < % % &.K.V.L.L.L.Q ^ L.L.L.L.",
"L.L.L.Q ~ = L.L.H * ..L.L.L.L.L.=.1 % % > x.M.y.L.L.L.~ R L.L.L.",
"L.L.L.Q F L.L.L.C % % L.L.L.Z.K.q.1 % % % s L.L.L.L.L.R Q L.L.L.",
"L.L.E W - L.L.L.A % % $ v.K.K.K.0.2 % % % % L.L.L.L.L.L.W F L.L.",
"L.L.R P L.L.L.L.T % % % ' V.c.5.| 2 % % % % f V.K.z.L.L.R P L.L.",
"L.L.I V L.L.F.K.;.% % % % i L.L.U 4 % , 3 % % 4.H.j.L.L.P I L.L.",
"L.L.P b L.L.K.K.9.% % % % % L.L.O.4 % h %.% % a L.L.L.L.K P L.L.",
"L.L.L y L.L.m.u. .; % % % % % h.e.5 % h 7.0 % % o L.L.L.L.L 8 L.",
"L.L.K y L.L.L.L.L.w % % g % % j 8.5 % + L.N % % % p.L.L.L.K 7 L.",
"L.L.K c L.L.L.L.d.v % % 6.l % % d 6 % O L.L.z % % ] L.L.F K L.L.",
"L.L.G M L.L.D.K.S.B % % X.} % % % % % [ G.K.a.= % %   L.F G L.L.",
"L.L.D S L.L.N.K.Z.Y % % X L.L.& % % % +.K.K.A.{ % % + L.F V L.L.",
"L.L.V D L.L.L.t.L.Z % % : L.V.r.& % % #.k.3.L.L.% o L.L.D x L.L.",
"L.L.L.S n L.L.L.L.J % % k K.K.K.>.% % X L.L.L.L.L.L.L.B S L.L.L.",
"L.L.L.B V L.L.L.L.<.% % p J.B.s.$.O % X L.B.H.n.L.L.L.V b L.L.L.",
"L.L.L.L.M n L.L.L.w.; % % *.L.L.L.L.@.i.K.K.b.L.L.L.M M L.L.L.L.",
"L.L.L.L.c m c L.L.L.q % % L.L.L.C.J.K.K.K.f.L.L.L.n m 7 L.L.L.L.",
"L.L.L.L.L.c n x L.L.u % # 2.A.K.K.K.V.g.L.L.L.L.b n e L.L.L.L.L.",
"L.L.L.L.L.L.x b c L.9 . L.L.L.L.L.L.L.L.L.L.L.b b e L.L.L.L.L.L.",
"L.L.L.L.L.L.L.e c c t L.L.L.L.L.L.L.L.L.L.x c c < L.L.L.L.L.L.L.",
"L.L.L.L.L.L.L.L.L.t c c x x y L.L.x x x c c e L.L.L.L.L.L.L.L.L.",
"L.L.L.L.L.L.L.L.L.L.L.8 t x x x x x x t 3 L.L.L.L.L.L.L.L.L.L.L.",
"L.L.L.L.L.L.L.L.L.L.L.L.L.L.L.+ + L.L.L.L.L.L.L.L.L.L.L.L.L.L.L.",
"L.L.L.L.L.L.L.L.L.L.L.L.L.L.L.L.L.L.L.L.L.L.L.L.L.L.L.L.L.L.L.L."
};
