/* XPM */
static char *result[] = {
/* columns rows colors chars-per-pixel */
"16 16 84 1 ",
"  c #131313",
". c #131314",
"X c gray8",
"o c #151515",
"O c #151516",
"+ c #141617",
"@ c #181717",
"# c #131719",
"$ c #131A1D",
"% c #161B1D",
"& c #191918",
"* c #1B1B1B",
"= c gray11",
"- c #1D1D1D",
"; c #1E1D1C",
": c gray12",
"> c #121E24",
", c #0D202A",
"< c #112028",
"1 c #0F2530",
"2 c #0A2B3D",
"3 c #122631",
"4 c #112935",
"5 c #1C2D36",
"6 c #1B303B",
"7 c #1E333D",
"8 c #202020",
"9 c gray13",
"0 c #232323",
"q c #202324",
"w c gray14",
"e c #252525",
"r c #272727",
"t c #21272A",
"y c #282828",
"u c gray16",
"i c #2C2C2C",
"p c #2D2D2D",
"a c gray18",
"s c #2F2F2F",
"d c #26353C",
"f c #313131",
"g c #323232",
"h c gray20",
"j c #343434",
"k c #353535",
"l c #373737",
"z c gray22",
"x c #393939",
"c c #0F3549",
"v c #113446",
"b c #1A3441",
"n c #1C3643",
"m c #16384A",
"M c #1C3948",
"N c #0D3B53",
"B c #0C3E59",
"V c #0C415D",
"C c #1A4257",
"Z c #0B4766",
"A c #0C4D6E",
"S c #09547B",
"D c #0E5A81",
"F c #13648E",
"G c #086494",
"H c #006FA9",
"J c #1473A4",
"K c #0075B2",
"L c #0376B2",
"P c #008AD2",
"I c #008CD5",
"U c #0392DC",
"Y c #0192DE",
"T c #0095E2",
"R c #0095E3",
"E c #0096E4",
"W c #0097E5",
"Q c #0097E6",
"! c #0098E7",
"~ c #009DF0",
"^ c #009EF1",
"/ c #009FF1",
"( c #009FF2",
") c None",
/* pixels */
"))))))))))))))))",
")))))xlhjlz)))))",
")))lg))))))kj)))",
"))ki))/Qn ))gf))",
"))s)dL))tXGI)h))",
")g));.Y^CX#)))a)",
")p))5XV)qOoAT)s)",
")u)RbXXBM>m+))p)",
")r))7Xv$6 )%c)i)",
")y)~FX2XX4(DX)u)",
")r)))XSU3<)),)0)",
"))w)JoZH)NWP)e))",
"))99)&1E^!K)0=))",
"))):8@)))))9*)))",
")))))-::8:=)))))",
"))))))))))))))))"
};
