/* XPM */
static char *result[] = {
/* columns rows colors chars-per-pixel */
"64 64 166 2 ",
"   c #292929",
".  c #30302F",
"X  c #2A2F31",
"o  c #2D3132",
"O  c #263339",
"+  c #2A3439",
"@  c #353535",
"#  c #393736",
"$  c #3A3837",
"%  c #3C3B3B",
"&  c #363A3B",
"*  c #403E3C",
"=  c #43413F",
"-  c #243A44",
";  c #263D47",
":  c #1F485B",
">  c #204353",
",  c #324C58",
"<  c #195B79",
"1  c #224D60",
"2  c #2A566A",
"3  c #215167",
"4  c #395E6D",
"5  c #3C5A65",
"6  c #225C75",
"7  c #375F70",
"8  c #396578",
"9  c #444343",
"0  c #494644",
"q  c #4C4946",
"w  c #4B4B4B",
"e  c #41494C",
"r  c #514F4D",
"t  c #54514F",
"y  c #484F51",
"u  c #4D5253",
"i  c #41555E",
"p  c #465052",
"a  c #535353",
"s  c #5D5956",
"d  c #545A5C",
"f  c #5C5C5C",
"g  c #595755",
"h  c #605D5A",
"j  c #445962",
"k  c #495B62",
"l  c #555F62",
"z  c #45616C",
"x  c #5E747E",
"c  c #656564",
"v  c #6B6966",
"b  c #6D6B6A",
"n  c #737373",
"m  c #7C7B7B",
"M  c #827F7D",
"N  c #176283",
"B  c #15688D",
"V  c #1D6E92",
"C  c #1C759D",
"Z  c #2F718E",
"A  c #24799F",
"S  c #317695",
"D  c #0E7CAE",
"F  c #1075A2",
"G  c #0D7EB1",
"H  c #247DA4",
"J  c #1680AF",
"K  c #0C84BA",
"L  c #1A89BA",
"P  c #1486B8",
"I  c #2781A9",
"U  c #2889B3",
"Y  c #498098",
"T  c #5C8191",
"R  c #678592",
"E  c #0B8DC7",
"W  c #0B92CE",
"Q  c #0793D2",
"!  c #059ADC",
"~  c #0D9BDB",
"^  c #0697D8",
"/  c #1095D0",
"(  c #2892C1",
")  c #35A9DD",
"_  c #059DE1",
"`  c #089EE1",
"'  c #03A0E7",
"]  c #03A5ED",
"[  c #09A8EF",
"{  c #01A7F1",
"}  c #00A8F3",
"|  c #0CACF4",
" . c #13AEF4",
".. c #1CB1F4",
"X. c #17B0F4",
"o. c #22B3F5",
"O. c #2BB7F5",
"+. c #2FB8F5",
"@. c #35BAF5",
"#. c #3BBCF6",
"$. c #5AADD2",
"%. c #49B8E9",
"&. c #5EBAE3",
"*. c #41BDF4",
"=. c #46C0F6",
"-. c #4DC2F7",
";. c #54C4F7",
":. c #5AC6F7",
">. c #64CAF8",
",. c #6CCDF8",
"<. c #60C8F6",
"1. c #70CEF8",
"2. c #77CFF6",
"3. c #76D0F9",
"4. c #7ED3F9",
"5. c #838383",
"6. c #8D8D8C",
"7. c #888685",
"8. c #92908F",
"9. c #959595",
"0. c #9C9C9C",
"q. c #999695",
"w. c #86A2AE",
"e. c #90A1A7",
"r. c gray64",
"t. c #ACABAB",
"y. c #B4B4B4",
"u. c #BBBBBB",
"i. c #C1C0BE",
"p. c #8CB3C5",
"a. c #89BBD1",
"s. c #84D5F9",
"d. c #89D7F9",
"f. c #92DAFA",
"g. c #9BDDFA",
"h. c #A2DFFB",
"j. c #A5E0FB",
"k. c #ABE3FB",
"l. c #B4E6FB",
"z. c #B9E7FC",
"x. c #BCE8FC",
"c. c #C4C4C3",
"v. c #CBCBCB",
"b. c #C9D1D5",
"n. c #D4D3D3",
"m. c #D8D7D7",
"M. c #DCDCDC",
"N. c #E0E0DF",
"B. c #D3DEE4",
"V. c #C3EAFC",
"C. c #CCEEFD",
"Z. c #D0EFFD",
"A. c #D5F1FD",
"S. c #DEF4FD",
"D. c #E3E3E3",
"F. c #ECECEB",
"G. c #E3E8E9",
"H. c #F0EFEF",
"J. c #F0F0EF",
"K. c #E2F5FE",
"L. c #EAF7FD",
"P. c #EDF9FE",
"I. c #F2F2F2",
"U. c #F4FBFE",
"Y. c #FFFFFF",
"T. c None",
/* pixels */
"T.T.T.T.T.T.T.T.T.T.T.T.T.T.T.T.T.T.T.T.T.T.T.T.T.T.T.u w r w w r w u w r T.T.T.T.T.T.T.T.T.T.T.T.T.T.T.T.T.T.T.T.T.T.T.T.T.T.T.",
"T.T.T.T.T.T.T.T.T.T.T.T.T.T.T.T.T.T.T.T.T.T.T.w w r w w u w w u w w r w w w w w w T.T.T.T.T.T.T.T.T.T.T.T.T.T.T.T.T.T.T.T.T.T.T.",
"T.T.T.T.T.T.T.T.T.T.T.T.T.T.T.T.T.T.T.T.w w w w u w w w r w w w r w u w w w w r w r w w T.T.T.T.T.T.T.T.T.T.T.T.T.T.T.T.T.T.T.T.",
"T.T.T.T.T.T.T.T.T.T.T.T.T.T.T.T.T.T.w w w u r w w w w r w w w w w w w w w w w u u w w w w w T.T.T.T.T.T.T.T.T.T.T.T.T.T.T.T.T.T.",
"T.T.T.T.T.T.T.T.T.T.T.T.T.T.T.T.w w w w w w w w w b 9.y.v.M.F.F.I.F.M.c.y.8.c w w w w w w w w w T.T.T.T.T.T.T.T.T.T.T.T.T.T.T.T.",
"T.T.T.T.T.T.T.T.T.T.T.T.T.T.w w w w w w w w m u.F.Y.Y.Y.Y.Y.Y.Y.Y.Y.Y.Y.Y.Y.Y.F.y.m w w w w w w w w T.T.T.T.T.T.T.T.T.T.T.T.T.T.",
"T.T.T.T.T.T.T.T.T.T.T.T.T.w w w w w w a r.F.Y.Y.Y.Y.Y.Y.Y.Y.Y.Y.Y.Y.Y.Y.Y.Y.Y.Y.Y.Y.D.0.a w w w w w w T.T.T.T.T.T.T.T.T.T.T.T.T.",
"T.T.T.T.T.T.T.T.T.T.T.T.w w w w w w 0.I.Y.Y.Y.Y.Y.Y.Y.Y.Y.Y.Y.Y.Y.Y.n.6.h m.Y.Y.Y.Y.Y.Y.F.9.w w w w w w T.T.T.T.T.T.T.T.T.T.T.T.",
"T.T.T.T.T.T.T.T.T.T.w w e w w w n G.Y.Y.Y.Y.Y.Y.Y.Y.Y.Y.Y.Y.Y.Y.Y.b r r 9 % D.Y.Y.Y.Y.Y.Y.Y.M.n w 0 w w w T.T.T.T.T.T.T.T.T.T.T.",
"T.T.T.T.T.T.T.T.T.w 0 w w 0 w t.Y.Y.Y.Y.Y.Y.Y.Y.Y.U.l.4.-.@...| | y 9       v Y.Y.Y.Y.Y.Y.Y.Y.Y.r.w w 0 w w w T.T.T.T.T.T.T.T.T.",
"T.T.T.T.T.T.T.T.w w q w 0 d n.Y.Y.Y.Y.Y.Y.Y.Y.k.;.| } } { } } } } w $         c.Y.Y.Y.Y.Y.Y.Y.Y.Y.v.a q 0 e w T.T.T.T.T.T.T.T.T.",
"T.T.T.T.T.T.T.T.0 e 0 w l D.Y.Y.Y.Y.Y.Y.Y.f...} } { } } } } } } } p $         w Y.Y.Y.Y.Y.Y.Y.Y.Y.Y.M.d w q w 9 T.T.T.T.T.T.T.T.",
"T.T.T.T.T.T.T.0 w 0 w f F.Y.Y.Y.Y.Y.Y.V.O.} } } } } } } } } } } +.u $           r.Y.Y.Y.Y.Y.Y.Y.Y.Y.Y.D.g 0 w w e T.T.T.T.T.T.T.",
"T.T.T.T.T.T.w w e w g D.Y.Y.Y.Y.Y.Y.2.{ } } } } } } } } { | >.C.Y.s $           @ F.Y.S.s.d.Y.Y.Y.Y.Y.Y.M.a w w w 0 T.T.T.T.T.T.",
"T.T.T.T.T.0 w 9 9 w n.Y.Y.Y.Y.Y.I.%.} } } } } } } } | ;.k.U.Y.Y.Y.s $             x #.} { } -.U.Y.Y.Y.Y.Y.c.w e q 0 w T.T.T.T.T.",
"T.T.T.T.T.w 9 w 0 t.Y.Y.Y.Y.n.8.g k ~ } } } } } @.f.L.Y.Y.Y.Y.Y.Y.s $               W } } } } #.U.Y.Y.Y.Y.Y.0.0 9 w 0 T.T.T.T.T.",
"T.T.T.T.w e 9 0 n Y.Y.Y.Y.m.t t q @ - ' } X.3.A.Y.Y.Y.Y.Y.Y.Y.Y.Y.h #               : { } } { { #.U.Y.Y.Y.Y.Y.c 0 0 w 9 T.T.T.T.",
"T.T.T.T.9 0 w w D.Y.Y.Y.Y.F.r .       2 z.Y.Y.Y.Y.Y.Y.Y.Y.Y.Y.Y.S.d #                 D } } } { O.V.Y.Y.Y.Y.Y.M.w e 9 w T.T.T.T.",
"T.T.T.9 0 9 9 0.Y.Y.Y.Y.Y.2.w           0.Y.Y.Y.Y.Y.Y.Y.Y.Y.h.-.{ i #                 - ]  .,.C.Y.Y.Y.Y.Y.Y.Y.Y.6.9 0 9 0 T.T.T.",
"T.T.T.0 9 9 u H.Y.Y.Y.Y.V.o.l @           v.Y.Y.Y.Y.Y.V.<...} } { i @                   R Y.Y.Y.Y.Y.Y.Y.Y.Y.Y.Y.G.w 9 0 9 T.T.T.",
"T.T.9 0 w 9 0.Y.Y.Y.Y.Y.P.Y.M #           % F.Y.C.3...} } } } } } i $                   . G.Y.Y.Y.Y.Y.Y.Y.Y.Y.Y.Y.6.0 0 0 e T.T.",
"T.T.9 9 9 9 G.Y.Y.Y.Y.Y.Y.Y.8.$             d @.} } } } } } } } } 5 $                     n Y.Y.Y.Y.Y.K.A.Y.Y.Y.Y.M.9 * 9 9 T.T.",
"T.T.9 9 9 m Y.Y.Y.Y.Y.Y.Y.Y.t.*               N } } } } } } } } } j $                       v.Y.U.h.*.} #.Y.Y.Y.Y.Y.v , 0 9 T.T.",
"T.9 9 9 9 y.Y.Y.Y.Y.Y.Y.Y.Y.i.=                 G } } } } } } o.>.d $                       u <.| } } } } C.Y.Y.Y.Y.t.9 9 9 9 T.",
"T.9 9 9 9 F.Y.Y.Y.Y.Y.Y.Y.L.a.q                 X Q } } | ,.V.Y.Y.v $                         F } } } } } ,.Y.Y.Y.Y.B.0 9 9 9 T.",
"T.9 9 9 c Y.Y.Y.Y.Y.U.l.;.| _ w                   ; %.l.Y.Y.Y.Y.Y.v *                         + ' } } } } ..Y.Y.Y.Y.Y.g 9 9 9 T.",
"T.0 9 9 6.Y.Y.Y.Y.V.X.{ } } } w                     n Y.Y.Y.Y.Y.Y.b $           @               N { } } } o.L.Y.Y.Y.Y.m * 9 9 T.",
"9 0 = ; t.Y.Y.Y.Y.1.} } } } } j .                     t.Y.Y.Y.Y.Y.b $           3 e               Q | <.x.Y.Y.Y.Y.Y.Y.r.9 9 9 T.",
"* 9 ; 0 v.Y.Y.Y.Y.*.} } } } } 8 #                       n.Y.Y.Y.Y.b *           < I @             k U.Y.Y.Y.Y.Y.Y.Y.Y.u., * * = ",
"= = 9 = m.Y.Y.Y.Y.o.} } } } { Z $                       9 F.U.g.#.5 $           N } 5               u.Y.Y.Y.Y.Y.Y.Y.Y.v.* * * 9 ",
"= 0 = = F.Y.Y.Y.Y.| } } } ..4.e.*                         k | } } 4 $           B } U #             e Y.Y.Y.Y.Y.Y.Y.Y.M.* 0 9 = ",
"; = = = H.Y.Y.Y.Y.{ | <.V.Y.Y.c.=                           B } } 4 $           Y k.Y.m               q.Y.U.z.Y.Y.Y.Y.D.= ; = = ",
"* 9 * * F.Y.Y.Y.Y.k.U.Y.Y.Y.Y.m.q                             K } 4 *           r.Y.Y.N.=             @ &.| X.Y.Y.Y.Y.M.9 , * * ",
"= * * * F.Y.Y.Y.Y.Y.Y.Y.Y.Y.Y.F.q             : ;             O ^ 8 $           t.Y.Y.Y.q.              < } o.Y.Y.Y.Y.M.% = * * ",
"; * * * M.Y.Y.Y.Y.Y.Y.Y.Y.Y.Y.Y.r             : W o             > z $           y.Y.Y.Y.I.t               E @.Y.Y.Y.Y.v.* ; * * ",
"0 * , % c.Y.Y.Y.Y.Y.Y.Y.Y.U.g.#.j @           - } P               @ *           u.Y.Y.l.;.U @             > ;.Y.Y.Y.Y.u.* = * * ",
"* * = % t.Y.Y.Y.Y.Y.Y.l.:.| } } 8 @             ] } C               .           p.,. .} } { 4               w.Y.Y.Y.Y.0.* = = T.",
"T.* * ; 7.Y.Y.Y.Y.S...} } } } } Z $             ) g.L.5.                        E } } } } { ~ &             % I.Y.Y.Y.m = * ; T.",
"T.* * * f Y.Y.Y.Y.Y.| } } } } } H *             v.Y.Y.U.c                       Q { } } } } } H               6.Y.Y.Y.w * * * T.",
"T.* * * % F.Y.Y.Y.Y.:.} } } } } L =             y.Y.Y.Y.I.u                     ^ } } } } } } ] ,               N.Y.M.* * * * T.",
"T.% * * * y.Y.Y.Y.Y.z.} } } } | $.0             9.Y.Y.Y.Y.B.&                   _ } } } } } | ;.b.            w F.Y.r.* % % % T.",
"T.T.; % * b Y.Y.Y.Y.Y.O.} =.j.U.H.q             m Y.Y.L.3.| E X                 _ } } } -.j.U.Y.Y.6.      @ n F.Y.Y.l % % % T.T.",
"T.T.% % % % N.Y.Y.Y.Y.Z.K.Y.Y.Y.Y.t             l g.=.} } } } J                 [ :.h.U.Y.Y.Y.Y.Y.I.9 9 9.F.Y.Y.Y.m.$ % % % T.T.",
"T.T.% % % # 8.Y.Y.Y.Y.Y.Y.Y.Y.Y.Y.v .           ; } } } } } } } V             o P.Y.Y.Y.Y.Y.Y.Y.Y.Y.G.L.Y.Y.Y.Y.Y.5.% % % % T.T.",
"T.T.T.% % % 9 F.Y.Y.Y.Y.Y.Y.Y.Y.Y.M @           X ] { } } } } } ] 6           # Y.Y.Y.Y.Y.Y.Y.Y.C.,...C.Y.Y.Y.Y.D.; % % % T.T.T.",
"T.T.T.% % % % 6.Y.Y.Y.Y.Y.Y.Y.Y.z.T $             ! } } } } } } ] *.f         = Y.Y.Y.Y.Y.C.,.o.} } d.Y.Y.Y.Y.Y.M % $ % % T.T.T.",
"T.T.T.T.% $ % % M.Y.Y.Y.Y.Y.C.X.] H *             E } } } } X.,.C.Y.H.w       w Y.Y.U.j.@.} } } } ;.Y.Y.Y.Y.Y.n.* * % % T.T.T.T.",
"T.T.T.T.& & & % c Y.Y.Y.Y.Y.P.+.} L =             D } | ,.x.Y.Y.Y.Y.Y.N.$     u V.>.| } { } } } #.U.Y.Y.Y.Y.I.s $ $ $ % T.T.T.T.",
"T.T.T.T.T.$ % $ % 0.Y.Y.Y.Y.Y.L.+.W 0             S j.U.Y.Y.Y.Y.Y.Y.Y.Y.v.@ > D } } } } } } } #.U.Y.Y.Y.Y.Y.6.% # & $ T.T.T.T.T.",
"T.T.T.T.T.% & # # % c.Y.Y.Y.Y.Y.L.%.q             m Y.Y.Y.Y.Y.Y.Y.Y.U.g.*._ } } } } } } } } ;.U.Y.Y.Y.Y.Y.u.# # % # % T.T.T.T.T.",
"T.T.T.T.T.T.$ $ # & 9 m.Y.Y.Y.Y.Y.Y.t             c Y.Y.Y.Y.Y.Y.z.:.| } } } } } } } } } } f.Y.Y.Y.Y.Y.Y.b.= # & # # T.T.T.T.T.T.",
"T.T.T.T.T.T.T.$ & # # w M.Y.Y.Y.Y.Y.v @           w Y.Y.Y.A.3...} } } } } } } } } } { #.Z.Y.Y.Y.Y.Y.Y.m.9 % # # & T.T.T.T.T.T.T.",
"T.T.T.T.T.T.T.T.& & # & w M.Y.Y.Y.Y.M @           o L.f.@.} } } } } } } } } } } } O.j.Y.Y.Y.Y.Y.Y.Y.n.9 $ & & # T.T.T.T.T.T.T.T.",
"T.T.T.T.T.T.T.T.T.@ # # $ 9 c.Y.Y.Y.q.$           2 [ } } } } { } } } } } } | :.z.Y.Y.Y.Y.Y.Y.Y.Y.u.% # # @ # T.T.T.T.T.T.T.T.T.",
"T.T.T.T.T.T.T.T.T.# # # @ # @ 9.U.Y.i.%     % 9.F.U.x.s.;.@.o.....o.@.:.d.x.U.Y.Y.Y.Y.Y.Y.Y.Y.I.6.@ @ # # # T.T.T.T.T.T.T.T.T.T.",
"T.T.T.T.T.T.T.T.T.T.T.& @ # # @ s m.Y.7.f y.Y.Y.Y.Y.Y.Y.Y.Y.Y.Y.Y.Y.Y.Y.Y.Y.Y.Y.Y.Y.Y.Y.Y.Y.n.d @ @ & @ # T.T.T.T.T.T.T.T.T.T.T.",
"T.T.T.T.T.T.T.T.T.T.T.T.# # @ @ # & 5.G.Y.Y.Y.Y.Y.Y.Y.Y.Y.Y.Y.Y.Y.Y.Y.Y.Y.Y.Y.Y.Y.Y.Y.Y.D.m & @ @ @ # # T.T.T.T.T.T.T.T.T.T.T.T.",
"T.T.T.T.T.T.T.T.T.T.T.T.T.# @ # # # @ % 5.M.Y.Y.Y.Y.Y.Y.Y.Y.Y.Y.Y.Y.Y.Y.Y.Y.Y.Y.Y.Y.m.m $ @ # @ & # @ T.T.T.T.T.T.T.T.T.T.T.T.T.",
"T.T.T.T.T.T.T.T.T.T.T.T.T.T.@ @ @ @ @ @ @ @ f r.M.Y.Y.Y.Y.Y.Y.Y.Y.Y.Y.Y.Y.Y.Y.M.0.f @ @ @ # @ @ @ @ T.T.T.T.T.T.T.T.T.T.T.T.T.T.",
"T.T.T.T.T.T.T.T.T.T.T.T.T.T.T.T.@ @ @ @ @ @ @ @ @ w n 0.y.v.m.B.N.m.v.y.9.n 0 @ @ @ @ @ @ @ @ @ T.T.T.T.T.T.T.T.T.T.T.T.T.T.T.T.",
"T.T.T.T.T.T.T.T.T.T.T.T.T.T.T.T.T.T.@ @ @ @ @ @ @ @ @ @ @ @ @ @ @ @ @ @ @ @ @ @ @ @ @ @ @ @ T.T.T.T.T.T.T.T.T.T.T.T.T.T.T.T.T.T.",
"T.T.T.T.T.T.T.T.T.T.T.T.T.T.T.T.T.T.T.T.@ @ @ @ @ @ @ @ @ @ . @ . @ @ @ @ @ @ @ @ @ @ @ T.T.T.T.T.T.T.T.T.T.T.T.T.T.T.T.T.T.T.T.",
"T.T.T.T.T.T.T.T.T.T.T.T.T.T.T.T.T.T.T.T.T.T.T.@ @ @ @ o . @ @ . @ @ @ o @ @ o @ @ T.T.T.T.T.T.T.T.T.T.T.T.T.T.T.T.T.T.T.T.T.T.T.",
"T.T.T.T.T.T.T.T.T.T.T.T.T.T.T.T.T.T.T.T.T.T.T.T.T.T.T.T.@ @ . @ @ . @ @ T.T.T.T.T.T.T.T.T.T.T.T.T.T.T.T.T.T.T.T.T.T.T.T.T.T.T.T."
};
