/* XPM */
static char *result[] = {
/* columns rows colors chars-per-pixel */
"16 16 155 2 ",
"   c gray16",
".  c #2A2A29",
"X  c #292A2A",
"o  c #2A2A2A",
"O  c #2A2B2C",
"+  c #2E2E2D",
"@  c #272E32",
"#  c #272F33",
"$  c #282D30",
"%  c #282E31",
"&  c #2B2F30",
"*  c #29373D",
"=  c #313131",
"-  c #323333",
";  c #343434",
":  c gray21",
">  c #373737",
",  c #393939",
"<  c #3C3C3C",
"1  c #3E3E3E",
"2  c #3F3F3F",
"3  c #243943",
"4  c #243F4B",
"5  c #2E4149",
"6  c #2D4955",
"7  c #315B6D",
"8  c #3F6271",
"9  c #414141",
"0  c gray26",
"q  c #444444",
"w  c gray27",
"e  c #464646",
"r  c gray28",
"t  c #494949",
"y  c gray29",
"u  c #4B4B4B",
"i  c #4C4C4C",
"p  c #445156",
"a  c #465359",
"s  c #515353",
"d  c #555555",
"f  c gray34",
"g  c #585858",
"h  c #5A5A5A",
"j  c #5B5B5B",
"k  c #4A636D",
"l  c #5F6365",
"z  c #426270",
"x  c #476D7D",
"c  c #626262",
"v  c #62696C",
"b  c #747372",
"n  c #717374",
"m  c #747474",
"M  c #767676",
"N  c #777777",
"B  c #797979",
"V  c #467083",
"C  c #407790",
"Z  c #0D83B8",
"A  c #778F99",
"S  c #77A1B4",
"D  c #7CA4B6",
"F  c #0C91CC",
"G  c #0B9CDD",
"H  c #179BD5",
"J  c #3099C8",
"K  c #12A7EA",
"L  c #02A9F3",
"P  c #03A9F3",
"I  c #04A9F3",
"U  c #06AAF3",
"Y  c #16ADF0",
"T  c #31B9F5",
"R  c #3BBCF6",
"E  c #409FC8",
"W  c #5CA6C8",
"Q  c #51B4DF",
"!  c #4BBDF0",
"~  c #4AC1F6",
"^  c #4CC2F7",
"/  c #4DC2F7",
"(  c #4FC3F7",
")  c #5FC7F5",
"_  c #68CCF8",
"`  c #78D1F9",
"'  c #7AD2F9",
"]  c #7ED3F9",
"[  c gray51",
"{  c #848484",
"}  c gray52",
"|  c #868686",
" . c #8D9396",
".. c #84959C",
"X. c #979899",
"o. c #989898",
"O. c gray60",
"+. c #9A9A9A",
"@. c #9F9F9F",
"#. c #99A2A6",
"$. c #82A4B3",
"%. c #A0A0A0",
"&. c gray63",
"*. c #A4A4A4",
"=. c #A7A7A7",
"-. c gray66",
";. c #B4B3B2",
":. c #B6B6B5",
">. c #95BACA",
",. c #85BED7",
"<. c #9FC6D7",
"1. c #82C4E2",
"2. c #88D6F9",
"3. c #8AD7FA",
"4. c #8DD8FA",
"5. c #93DAFA",
"6. c #9CDDFA",
"7. c #9DDDFA",
"8. c #BAD9E6",
"9. c #A1DFFB",
"0. c #A5E0FB",
"q. c #AFE4FB",
"w. c #B3E5FB",
"e. c #B6E6FC",
"r. c #D1D1D0",
"t. c #D5D5D5",
"y. c gray84",
"u. c gray85",
"i. c #DADADA",
"p. c gainsboro",
"a. c gray87",
"s. c #CCEEFD",
"d. c #D5F1FD",
"f. c #D8F2FD",
"g. c #DBF3FD",
"h. c #DDF3FD",
"j. c #DFF4FD",
"k. c #E5E8EA",
"l. c gray93",
"z. c #E1F5FE",
"x. c #E3F5FE",
"c. c #E6F6FE",
"v. c #E8F5FA",
"b. c #F1F1F1",
"n. c #F3F3F3",
"m. c #F4F4F4",
"M. c gray96",
"N. c gray97",
"B. c #F9FDFF",
"V. c #FAFDFF",
"C. c #FBFEFF",
"Z. c gray99",
"A. c #FCFDFD",
"S. c white",
"D. c None",
/* pixels */
"D.D.D.D.D.i i i i i i D.D.D.D.D.",
"D.D.D.y j -.a.N.l.r.=.h y D.D.D.",
"D.D.t | M.d.` ~ z c S.m.{ t D.D.",
"D.r } m.1.P T 4.v   D 2.A.[ r D.",
"D.f M...* 8.C.e.k   3 ! z.n.d D.",
"q *.S.:.  a Y L 7      .6.h.&.q ",
"0 p.q.E o   V x.b   & @ G 0.u.0 ",
"9 N./ Q +     S 8   C   n V.m.9 ",
"2 N.B.v.- % 4 # 6   k.p o W n.2 ",
"1 i.9.U 5   <.< .   K F O s t.1 ",
"< @.g.7.l   ,.J $ X ) w.X.%.+.< ",
"D.u n.j.x   Z R $.= s._ 5.b.y D.",
"D., B A.A   #.c.3.H I ] Z.M , D.",
"D.D.> N ;.g >.( ^ ' f.b.m > D.D.",
"D.D.D.: e O.y.n.n.t.o.w : D.D.D.",
"D.D.D.D.D.; ; ; ; ; ; D.D.D.D.D."
};
