/* XPM */
static char *result[] = {
/* columns rows colors chars-per-pixel */
"32 32 126 2 ",
"   c #292929",
".  c #31302F",
"X  c #273237",
"o  c #2C3235",
"O  c #25353C",
"+  c #2C373D",
"@  c #343434",
"#  c #3A3937",
"$  c #313639",
"%  c #363C3F",
"&  c #3C3C3C",
"*  c #243740",
"=  c #263B44",
"-  c #223F4B",
";  c #1F4A5E",
":  c #314146",
">  c #3E4243",
",  c #214251",
"<  c #244857",
"1  c #36515C",
"2  c #1D5771",
"3  c #28576B",
"4  c #316176",
"5  c #434343",
"6  c #494745",
"7  c #4B4B4B",
"8  c #41525A",
"9  c gray32",
"0  c #5B5B5B",
"q  c #62615F",
"w  c #646464",
"e  c #6B6B6B",
"r  c #757574",
"t  c #7B7A7A",
"y  c #15668A",
"u  c #11729D",
"i  c #167AA7",
"p  c #137CAB",
"a  c #247DA4",
"s  c #217FA9",
"d  c #4B7B90",
"f  c #1D80AB",
"g  c #0C84B9",
"h  c #1C83B0",
"j  c #1A89BB",
"k  c #3E8AAC",
"l  c #6D8692",
"z  c #788B93",
"x  c #75909C",
"c  c #4587A5",
"v  c #5197B6",
"b  c #7896A3",
"n  c #7598A7",
"m  c #7099AB",
"M  c #6FA3BA",
"N  c #79A1B3",
"B  c #0F95D1",
"V  c #099BDB",
"C  c #1999D3",
"Z  c #219ACF",
"A  c #049EE2",
"S  c #03A4ED",
"D  c #12A7EA",
"F  c #01A6F0",
"G  c #01A8F3",
"H  c #0CACF4",
"J  c #13AEF4",
"K  c #1BB1F4",
"L  c #34B5EE",
"P  c #22B4F5",
"I  c #31B9F5",
"U  c #3DBCF5",
"Y  c #429DC5",
"T  c #40ADDE",
"R  c #5DB5DC",
"E  c #5DBFEB",
"W  c #45C0F6",
"Q  c #4CC2F7",
"!  c #50C3F7",
"~  c #5FC9F7",
"^  c #61C8F6",
"/  c #62C9F8",
"(  c #69CCF8",
")  c #73CFF8",
"_  c #78D1F9",
"`  c #828282",
"'  c #898989",
"]  c #949494",
"[  c #95999B",
"{  c #9C9C9C",
"}  c #A1A09F",
"|  c #A3A4A4",
" . c #A4AAAC",
".. c #ADACAB",
"X. c #AEB5B8",
"o. c #B4B3B3",
"O. c #9EB8C4",
"+. c #9DBECD",
"@. c #A5B9C2",
"#. c #B4CDD8",
"$. c #81D4F9",
"%. c #89D7F9",
"&. c #8ED8FA",
"*. c #95D7F4",
"=. c #93DAFA",
"-. c #9BDDFA",
";. c #A1DFFB",
":. c #A4E0FB",
">. c #B5E6FB",
",. c #C4C4C4",
"<. c #CDCDCD",
"1. c #D4D4D4",
"2. c #DDDDDD",
"3. c #C2EAFC",
"4. c #CCEEFD",
"5. c #D1EFFD",
"6. c #D2F0FD",
"7. c #E1E1E1",
"8. c #ECECEC",
"9. c #E4F6FE",
"0. c #E9F7FE",
"q. c #ECF9FE",
"w. c #F4F4F4",
"e. c #F5FBFE",
"r. c #FEFFFF",
"t. c None",
/* pixels */
"t.t.t.t.t.t.t.t.t.t.t.t.7 7 7 7 9 7 7 7 t.t.t.t.t.t.t.t.t.t.t.t.",
"t.t.t.t.t.t.t.t.t.7 7 7 7 9 7 7 7 7 7 9 7 7 7 t.t.t.t.t.t.t.t.t.",
"t.t.t.t.t.t.t.t.7 7 7 r ..1.8.w.w.8.1.| r 7 7 7 t.t.t.t.t.t.t.t.",
"t.t.t.t.t.t.7 7 7 ' 7.r.r.r.e.r.r.1.<.r.r.2.' 7 7 7 t.t.t.t.t.t.",
"t.t.t.t.t.7 7 q 1.r.r.r.e.4.;.&.m 6 @ 1.r.r.r.1.q 7 7 t.t.t.t.t.",
"t.t.t.t.7 6 t w.r.r.9.) K G G G a .   0 r.r.r.r.w.r 7 5 t.t.t.t.",
"t.t.t.7 6 t e.r.r.&.H G G G G Q b       o.e.3.r.e.e.r 6 7 t.t.t.",
"t.t.t.6 w w.r.1.b S G G I =.9.r...@     % D G ~ r.r.w.0 6 t.t.t.",
"t.t.6 5 1.r.w.6 @ 2 ) 5.r.r.r.r. .        y G G %.r.r.1.6 5 t.t.",
"t.6 6 ' r.r.=.5     | r.r.q.-.U f @         R 4.r.r.r.r.z 5 6 t.",
"t.5 5 7.r.r.e.q       #.Q H G G f .         e r.r.e.e.r.2.6 5 t.",
"t.5 e r.r.r.r.t       O A G G H c .           O.( J $.r.r.w 6 t.",
"5 5 | r.r.q.=.d         ; U -.e.o.@           - G G P r.r.} 5 5 ",
"5 5 <.r.4.G G a           ] r.r.o.@     :       u K _ e.r.,.> 5 ",
"> 5 8.r.-.G G j             o.9.N @     i $     @ 8.r.r.r.7.> > ",
"5 & w.r.$.K _ #.@           $ V f @     Y x       ` r.q.r.8.5 & ",
"5 & w.r.q.r.r.w.#     X       , f @     1.w.7       Z &.r.8.& 5 ",
"& & 8.r.r.r.e.>.5     O p       : @     2.0.M       ; :.r.7.> & ",
"& 5 ,.r.e.) K G 1       I l             L D G 3       X.r.,.& & ",
"& & | r.r.K G G 4       2.r.r           A G G V @     5 w.{ & & ",
"t.& w r.r._ J ( z       ,.e.*.<         S G U =.|     r r.0 & t.",
"t.& & 2.r.e.e.r...      c J G A *       =.9.r.r.r.[ 7.r.1.& & t.",
"t.6 # d r.r.r.r.@..     y G G G C @   @ r.r.e.:.Q -.r.r.r & t.t.",
"t.t.# 6 <.r.r.$.B @     2 G Q ;.e.,.  & 4.( H G / r.r.,.& & t.t.",
"t.t.t.& 9 w.r.r.E #     1 0.r.r.r.9.v g G G G / r.r.8.7 % t.t.t.",
"t.t.t.& # e w.r.r.6     & r.e.:.W G G G G H -.r.r.w.w # # t.t.t.",
"t.t.t.t.# @ w w.r.q     + / J G G G G K _ 0.r.r.8.w @ # t.t.t.t.",
"t.t.t.t.t.# # 7 <.{ 0 o.w.6.:.&.&.:.5.r.r.r.r.,.7 # # t.t.t.t.t.",
"t.t.t.t.t.t.# @ # r 2.r.r.e.r.r.r.r.r.r.r.1.r @ # @ t.t.t.t.t.t.",
"t.t.t.t.t.t.t.t.@ @ @ 0 ] ,.7.8.8.7.,.] 0 @ @ @ t.t.t.t.t.t.t.t.",
"t.t.t.t.t.t.t.t.t.@ @ @ @ @ @ @ @ @ @ @ @ @ t.t.t.t.t.t.t.t.t.t.",
"t.t.t.t.t.t.t.t.t.t.t.t.@ @ @ . @ @ @ @ t.t.t.t.t.t.t.t.t.t.t.t."
};
