<svg version="1.1" id="Layer_1" xmlns="http://www.w3.org/2000/svg" xmlns:xlink="http://www.w3.org/1999/xlink" x="0px" y="0px"
	 width="100%" viewBox="0 0 460 460" enable-background="new 0 0 460 460" xml:space="preserve">
<path fill="#363636" opacity="1.000000" stroke="none" 
	d="
M257.000000,461.000000 
	C239.979111,461.000000 222.958206,461.000000 205.382477,460.619812 
	C203.793686,459.856445 202.779053,459.206299 201.722916,459.129944 
	C184.682236,457.897644 168.215576,453.452515 152.439667,447.600037 
	C124.587532,437.267609 99.154457,422.318329 76.989838,402.241516 
	C64.288696,390.736725 52.882320,378.075745 43.567734,363.980896 
	C52.600811,363.991974 61.179317,363.851257 69.748840,364.067230 
	C73.404564,364.159393 75.468124,363.161530 75.607605,359.424683 
	C84.059593,367.762360 91.578491,376.706940 100.537849,383.842987 
	C111.761871,392.782837 123.729362,401.002106 136.170166,408.150116 
	C153.637100,418.185944 172.479660,424.919281 192.525146,428.356110 
	C226.554657,434.190521 260.078979,433.028748 293.008179,422.291199 
	C318.361328,414.024017 341.217010,401.198944 361.557526,383.856140 
	C375.293396,372.144592 386.791107,358.476074 397.634094,344.536835 
	C395.499603,349.809998 393.276764,354.647705 390.747437,360.152374 
	C401.596100,358.679260 412.710571,362.866394 423.016693,357.367096 
	C414.976166,367.668823 407.183899,377.776550 398.998413,387.555084 
	C387.078979,401.794159 372.591614,413.277924 357.115326,423.223511 
	C337.687927,435.708252 317.228333,446.452881 294.514008,451.901459 
	C283.241608,454.605408 271.820953,456.688141 260.489532,459.153870 
	C259.251099,459.423340 258.159637,460.368347 257.000000,461.000000 
z"/>
<path fill="#000000" opacity="1.000000" stroke="none" 
	d="
M257.468658,461.000000 
	C258.159637,460.368347 259.251099,459.423340 260.489532,459.153870 
	C271.820953,456.688141 283.241608,454.605408 294.514008,451.901459 
	C317.228333,446.452881 337.687927,435.708252 357.115326,423.223511 
	C372.591614,413.277924 387.078979,401.794159 398.998413,387.555084 
	C407.183899,377.776550 414.976166,367.668823 423.259155,357.142517 
	C427.147339,350.429565 430.833374,344.344727 434.271210,338.122772 
	C442.481720,323.262878 448.961945,307.680634 452.903229,291.139252 
	C455.168976,281.629944 456.974823,272.011566 459.105072,262.468475 
	C459.310028,261.550415 460.348480,260.818390 461.000000,260.000000 
	C461.000000,326.927551 461.000000,393.855133 461.000000,461.000000 
	C393.312592,461.000000 325.624969,461.000000 257.468658,461.000000 
z"/>
<path fill="#000000" opacity="1.000000" stroke="none" 
	d="
M265.000000,1.000000 
	C330.260712,1.000000 395.521454,1.000000 461.000000,1.000000 
	C461.000000,66.687401 461.000000,132.375046 460.605957,198.537216 
	C459.470215,196.393784 458.704803,193.782257 457.991150,191.156647 
	C455.707245,182.753769 453.442535,174.345673 451.073181,165.556702 
	C450.505157,162.736389 450.371979,160.171982 449.510590,157.881439 
	C442.101562,138.180038 433.466553,119.017563 421.522003,101.630013 
	C415.736176,93.207680 408.681732,85.656868 402.096771,77.395866 
	C392.014099,67.877640 382.141113,58.558128 372.035370,49.498230 
	C354.315399,33.612122 333.173584,23.349583 311.324829,14.941623 
	C297.619507,9.667476 282.878296,7.094408 268.629547,3.207837 
	C267.316650,2.849712 266.205078,1.753491 265.000000,1.000000 
z"/>
<path fill="#000000" opacity="1.000000" stroke="none" 
	d="
M43.109528,363.973480 
	C52.882320,378.075745 64.288696,390.736725 76.989838,402.241516 
	C99.154457,422.318329 124.587532,437.267609 152.439667,447.600037 
	C168.215576,453.452515 184.682236,457.897644 201.722916,459.129944 
	C202.779053,459.206299 203.793686,459.856445 204.913818,460.619812 
	C137.074432,461.000000 69.148872,461.000000 1.000000,461.000000 
	C1.000000,395.979279 1.000000,330.958282 1.391197,265.473633 
	C2.827130,268.350464 3.871867,271.690918 4.923424,275.452484 
	C5.191466,277.673370 5.193596,279.558655 5.754735,281.259521 
	C10.413572,295.380859 14.088136,309.962128 20.205746,323.429810 
	C26.600473,337.507538 35.375187,350.504242 43.109528,363.973480 
z"/>
<path fill="#000000" opacity="1.000000" stroke="none" 
	d="
M0.999999,198.000000 
	C1.000000,132.406296 1.000000,66.812607 1.000000,1.000000 
	C66.354065,1.000000 131.708374,1.000000 197.515244,1.394783 
	C197.095825,2.179515 196.258453,2.776841 195.346786,2.929039 
	C173.299866,6.609636 152.017838,12.803452 131.959610,22.748293 
	C116.650650,30.338465 102.113808,39.051907 88.584595,49.745750 
	C71.914368,62.922337 57.559853,78.028114 44.699905,95.174179 
	C40.875099,100.566788 36.858440,105.527451 33.892063,111.052040 
	C28.180912,121.688522 22.149963,132.301163 17.929033,143.552948 
	C12.494307,158.040344 8.707738,173.146027 4.106354,188.379517 
	C3.000954,191.849075 2.000477,194.924545 0.999999,198.000000 
z"/>
<path fill="#4B4B4B" opacity="1.000000" stroke="none" 
	d="
M44.982506,94.996964 
	C57.559853,78.028114 71.914368,62.922337 88.584595,49.745750 
	C102.113808,39.051907 116.650650,30.338465 131.959610,22.748293 
	C152.017838,12.803452 173.299866,6.609636 195.346786,2.929039 
	C196.258453,2.776841 197.095825,2.179515 197.983902,1.394783 
	C220.020889,1.000000 242.041794,1.000000 264.531342,1.000000 
	C266.205078,1.753491 267.316650,2.849712 268.629547,3.207837 
	C282.878296,7.094408 297.619507,9.667476 311.324829,14.941623 
	C333.173584,23.349583 354.315399,33.612122 372.035370,49.498230 
	C382.141113,58.558128 392.014099,67.877640 401.866150,77.753616 
	C399.750916,78.951279 397.761902,79.923210 395.771973,79.925095 
	C385.199585,79.935127 374.626984,79.701851 363.752319,79.459229 
	C351.885956,69.639366 339.913788,60.578838 326.415710,53.538918 
	C311.475555,45.746883 296.089996,39.071014 279.746063,35.162605 
	C258.762970,30.144789 237.334259,28.685658 215.798874,30.156294 
	C191.051147,31.846294 167.150742,37.192680 145.031082,48.778233 
	C134.331329,54.382408 123.443298,59.966339 113.759743,67.082466 
	C102.584671,75.294662 92.643745,85.186272 81.940460,94.068726 
	C79.207039,94.520065 76.696571,95.884483 74.193726,95.870636 
	C64.455338,95.816757 54.719372,95.325493 44.982506,94.996964 
z"/>
<path fill="#3C3C3C" opacity="1.000000" stroke="none" 
	d="
M461.000000,259.583344 
	C460.348480,260.818390 459.310028,261.550415 459.105072,262.468475 
	C456.974823,272.011566 455.168976,281.629944 452.903229,291.139252 
	C448.961945,307.680634 442.481720,323.262878 434.271210,338.122772 
	C430.833374,344.344727 427.147339,350.429565 423.331665,356.801331 
	C412.710571,362.866394 401.596100,358.679260 390.747437,360.152374 
	C393.276764,354.647705 395.499603,349.809998 397.722412,344.227844 
	C402.572083,334.850189 407.750977,326.382690 412.198364,317.546997 
	C419.870056,302.305634 425.757507,286.414398 428.064087,269.353424 
	C428.805450,263.869873 430.016144,258.449768 431.376129,253.061951 
	C435.260529,254.082169 438.757599,255.727936 442.306427,255.848236 
	C448.520874,256.058899 454.767090,255.333344 461.000000,255.000000 
	C461.000000,256.388885 461.000000,257.777802 461.000000,259.583344 
z"/>
<path fill="#414141" opacity="1.000000" stroke="none" 
	d="
M461.000000,254.531342 
	C454.767090,255.333344 448.520874,256.058899 442.306427,255.848236 
	C438.757599,255.727936 435.260529,254.082169 431.315521,252.609955 
	C433.197113,229.226028 431.666229,206.517471 426.850494,184.135513 
	C424.695648,174.120392 420.773712,164.485504 417.850342,154.400360 
	C418.947357,154.652161 420.270691,154.967682 420.667480,155.751968 
	C421.784882,157.960693 422.226868,160.541626 423.500610,162.631165 
	C424.529694,164.319382 426.364166,166.696411 427.869049,166.716721 
	C435.631256,166.821457 443.402405,166.265198 451.170410,165.939575 
	C453.442535,174.345673 455.707245,182.753769 457.991150,191.156647 
	C458.704803,193.782257 459.470215,196.393784 460.605957,199.005875 
	C461.000000,217.354233 461.000000,235.708450 461.000000,254.531342 
z"/>
<path fill="#3F3F3F" opacity="1.000000" stroke="none" 
	d="
M0.999999,198.468658 
	C2.000477,194.924545 3.000954,191.849075 4.487724,188.419815 
	C5.895994,191.718109 6.817971,195.370209 7.989158,200.009476 
	C15.076744,200.009476 23.408310,200.009476 31.789715,200.404144 
	C31.230547,203.834274 30.211525,206.851883 30.078257,209.908112 
	C29.127142,231.719925 30.015816,253.445435 33.329903,275.027588 
	C23.604874,278.239716 14.260041,277.742065 4.916605,275.031403 
	C3.871867,271.690918 2.827130,268.350464 1.391197,265.005005 
	C1.000000,242.979111 1.000000,220.958206 0.999999,198.468658 
z"/>
<path fill="#FDFEFE" opacity="1.000000" stroke="none" 
	d="
M33.707767,275.006073 
	C30.015816,253.445435 29.127142,231.719925 30.078257,209.908112 
	C30.211525,206.851883 31.230547,203.834274 31.913977,200.000946 
	C34.337498,189.030930 36.004688,178.640091 39.181946,168.733551 
	C45.233627,149.864655 53.567490,131.933670 65.122192,115.731262 
	C70.406982,108.320747 76.461494,101.459160 82.166916,94.348618 
	C92.643745,85.186272 102.584671,75.294662 113.759743,67.082466 
	C123.443298,59.966339 134.331329,54.382408 145.031082,48.778233 
	C167.150742,37.192680 191.051147,31.846294 215.798874,30.156294 
	C237.334259,28.685658 258.762970,30.144789 279.746063,35.162605 
	C296.089996,39.071014 311.475555,45.746883 326.415710,53.538918 
	C339.913788,60.578838 351.885956,69.639366 363.977020,79.721390 
	C378.094238,92.771988 390.536316,106.534737 400.348663,122.333252 
	C406.786682,132.698898 411.930328,143.868515 417.653687,154.678070 
	C420.773712,164.485504 424.695648,174.120392 426.850494,184.135513 
	C431.666229,206.517471 433.197113,229.226028 430.951508,252.548630 
	C430.016144,258.449768 428.805450,263.869873 428.064087,269.353424 
	C425.757507,286.414398 419.870056,302.305634 412.198364,317.546997 
	C407.750977,326.382690 402.572083,334.850189 397.634094,343.792358 
	C386.791107,358.476074 375.293396,372.144592 361.557526,383.856140 
	C341.217010,401.198944 318.361328,414.024017 293.008179,422.291199 
	C260.078979,433.028748 226.554657,434.190521 192.525146,428.356110 
	C172.479660,424.919281 153.637100,418.185944 136.170166,408.150116 
	C123.729362,401.002106 111.761871,392.782837 100.537849,383.842987 
	C91.578491,376.706940 84.059593,367.762360 75.490349,359.131958 
	C68.778648,349.695190 61.700638,341.186035 56.344654,331.704163 
	C46.281841,313.889587 38.684410,294.931274 33.707767,275.006073 
M100.049301,116.020882 
	C100.104385,120.632278 100.159470,125.243675 99.705734,130.349030 
	C96.451897,134.994858 93.198059,139.640686 89.944221,144.286514 
	C90.211266,144.663162 90.478317,145.039825 90.745361,145.416473 
	C94.448265,144.334259 98.151169,143.252045 102.032761,142.972839 
	C103.363007,154.280624 104.693245,165.588409 105.300201,177.039581 
	C95.384964,180.678574 85.403862,184.153015 75.602562,188.076630 
	C73.263443,189.013016 70.091866,191.203064 69.743980,193.234497 
	C67.631546,205.569611 66.135445,218.014999 64.658470,230.450287 
	C64.356911,232.989212 65.807877,234.597443 68.748978,233.603241 
	C71.842186,232.557663 74.971039,231.605240 78.020020,230.443405 
	C89.275085,226.154572 100.503555,221.795975 111.958763,218.372696 
	C113.272476,229.906799 114.586189,241.440918 115.174698,253.071808 
	C101.521889,258.149261 87.880646,263.258209 74.206757,268.278229 
	C71.378853,269.316437 70.110001,270.912140 71.220734,273.917419 
	C74.530960,282.873901 78.067787,291.756134 81.049965,300.820709 
	C82.800995,306.143097 85.705742,305.884766 89.991280,304.266113 
	C100.318214,300.365601 110.762230,296.775116 121.412430,293.842896 
	C122.633476,305.218597 123.854523,316.594269 124.345558,328.090637 
	C117.570412,330.900726 110.795265,333.710815 104.020119,336.520905 
	C103.873901,337.214844 103.727676,337.908783 103.581459,338.602722 
	C106.016174,340.592834 108.536331,342.488220 110.869194,344.591339 
	C117.244705,350.339020 123.541267,356.174255 130.109726,362.783020 
	C130.758041,368.021637 131.405212,373.260437 132.054932,378.498871 
	C133.140045,387.247650 132.928329,396.532593 142.074310,402.751373 
	C143.159531,402.990021 144.379456,403.668610 145.304794,403.385223 
	C148.128143,402.520660 150.844223,401.300964 153.590912,400.191864 
	C163.186920,396.317078 172.778275,392.430695 183.061752,389.082306 
	C192.058701,391.192139 200.956116,394.090118 210.074066,395.241455 
	C227.078033,397.388580 244.031387,396.857574 261.066956,393.623138 
	C289.258362,388.270569 314.191528,376.367828 336.166016,358.316833 
	C344.324890,351.614716 351.623840,343.748596 358.646698,335.821259 
	C363.469421,330.377380 367.139832,323.912720 371.689545,317.381439 
	C369.927948,317.063293 369.217773,316.697815 368.687134,316.873718 
	C354.305969,321.642303 339.841797,326.187561 325.607269,331.363617 
	C312.734650,336.044403 300.116241,341.424255 287.259796,345.571838 
	C287.845947,334.239868 288.432098,322.907928 289.760559,311.286316 
	C291.198944,310.903900 292.661926,310.595612 294.071899,310.127563 
	C307.790802,305.573914 321.480560,300.931244 335.223694,296.452209 
	C340.491913,294.735229 346.076935,293.725677 349.751038,288.895752 
	C351.515106,291.233948 353.279175,293.572144 355.292053,296.559662 
	C357.559418,300.416779 359.880737,304.243439 362.076416,308.140930 
	C363.726837,311.070557 365.475128,312.575439 369.155212,310.795715 
	C374.374420,308.271759 379.919922,306.432831 385.240479,304.105652 
	C392.195801,301.063446 399.111481,298.141235 404.404846,292.118866 
	C407.004913,289.160675 406.832031,287.317169 405.037933,284.428375 
	C400.852783,277.689728 396.883850,270.816803 393.080872,263.217926 
	C394.211243,252.925186 395.349731,242.633347 396.467621,232.339249 
	C396.866150,228.669189 395.411102,227.412323 391.868591,228.838821 
	C386.745850,230.901642 381.604492,232.918259 376.110474,234.444351 
	C370.275452,224.448639 364.440460,214.452927 359.379913,204.201920 
	C367.263794,201.194534 375.153931,198.203369 383.029877,195.175339 
	C391.347260,191.977600 391.561188,191.887756 388.723022,183.510101 
	C385.566193,174.191833 381.955383,165.027390 378.380463,155.358459 
	C372.608551,157.683273 367.910980,159.693970 363.127991,161.475311 
	C355.080109,164.472626 346.977966,167.324249 338.351318,169.797363 
	C332.418365,159.902695 326.485382,150.008011 321.046814,139.499817 
	C333.237061,134.900360 345.427307,130.300919 358.612335,125.326126 
	C355.463806,122.335953 353.592499,120.503181 351.661957,118.735016 
	C343.884460,111.611671 336.174255,104.409492 328.203217,97.509010 
	C327.068481,96.526672 324.436188,96.440666 322.837830,96.969666 
	C315.334778,99.452850 307.950806,102.295837 300.117371,104.516541 
	C291.368195,89.358360 282.619049,74.200188 273.657135,58.402359 
	C264.718140,49.608646 264.386261,49.557163 253.329727,54.154663 
	C251.670944,54.844414 249.746033,54.988613 248.207413,55.853424 
	C244.901917,57.711334 241.768051,59.874607 238.355713,62.616158 
	C238.257965,63.585201 238.160233,64.554245 237.151978,65.267906 
	C224.527603,66.366379 211.769516,66.665115 199.309860,68.748642 
	C180.080536,71.964226 161.806458,78.453171 145.440231,89.360825 
	C137.660202,94.545998 130.305756,100.369759 122.162270,106.232361 
	C115.050491,109.317329 107.938713,112.402306 100.049301,116.020882 
z"/>
<path fill="#3B3B3B" opacity="1.000000" stroke="none" 
	d="
M33.329903,275.027588 
	C38.684410,294.931274 46.281841,313.889587 56.344654,331.704163 
	C61.700638,341.186035 68.778648,349.695190 75.196648,358.936127 
	C75.468124,363.161530 73.404564,364.159393 69.748840,364.067230 
	C61.179317,363.851257 52.600811,363.991974 43.567734,363.980896 
	C35.375187,350.504242 26.600473,337.507538 20.205746,323.429810 
	C14.088136,309.962128 10.413572,295.380859 5.754735,281.259521 
	C5.193596,279.558655 5.191466,277.673370 4.923426,275.452484 
	C14.260041,277.742065 23.604874,278.239716 33.329903,275.027588 
z"/>
<path fill="#464646" opacity="1.000000" stroke="none" 
	d="
M417.850342,154.400360 
	C411.930328,143.868515 406.786682,132.698898 400.348663,122.333252 
	C390.536316,106.534737 378.094238,92.771988 364.279175,79.814987 
	C374.626984,79.701851 385.199585,79.935127 395.771973,79.925095 
	C397.761902,79.923210 399.750916,78.951279 401.971008,78.069229 
	C408.681732,85.656868 415.736176,93.207680 421.522003,101.630013 
	C433.466553,119.017563 442.101562,138.180038 449.510590,157.881439 
	C450.371979,160.171982 450.505157,162.736389 451.073181,165.556702 
	C443.402405,166.265198 435.631256,166.821457 427.869049,166.716721 
	C426.364166,166.696411 424.529694,164.319382 423.500610,162.631165 
	C422.226868,160.541626 421.784882,157.960693 420.667480,155.751968 
	C420.270691,154.967682 418.947357,154.652161 417.850342,154.400360 
z"/>
<path fill="#454545" opacity="1.000000" stroke="none" 
	d="
M81.940460,94.068726 
	C76.461494,101.459160 70.406982,108.320747 65.122192,115.731262 
	C53.567490,131.933670 45.233627,149.864655 39.181946,168.733551 
	C36.004688,178.640091 34.337498,189.030930 31.864136,199.606277 
	C23.408310,200.009476 15.076744,200.009476 7.989158,200.009476 
	C6.817971,195.370209 5.895994,191.718109 4.592646,188.025696 
	C8.707738,173.146027 12.494307,158.040344 17.929033,143.552948 
	C22.149963,132.301163 28.180912,121.688522 33.892063,111.052040 
	C36.858440,105.527451 40.875099,100.566788 44.699905,95.174171 
	C54.719372,95.325493 64.455338,95.816757 74.193726,95.870636 
	C76.696571,95.884483 79.207039,94.520065 81.940460,94.068726 
z"/>
<path fill="#292A2A" opacity="1.000000" stroke="none" 
	d="
M182.371399,388.548706 
	C172.778275,392.430695 163.186920,396.317078 153.590912,400.191864 
	C150.844223,401.300964 148.128143,402.520660 145.304794,403.385223 
	C144.379456,403.668610 143.159531,402.990021 142.228912,402.160614 
	C142.536179,400.937134 142.889465,400.278717 142.812241,399.675446 
	C140.835068,384.231567 138.859024,368.787292 136.787903,353.355804 
	C133.591827,329.542542 130.136169,305.762512 127.139679,281.924500 
	C123.874496,255.949020 121.074448,229.915405 117.929245,203.924347 
	C116.878670,195.242813 115.389397,186.614334 114.086090,177.512634 
	C112.235931,161.447906 110.323761,145.840317 108.660011,130.206284 
	C108.447746,128.211685 109.531677,126.079132 110.389069,123.953712 
	C118.462105,121.212997 126.161201,118.529060 134.120758,116.074188 
	C137.258957,119.646095 140.136673,122.988937 143.097870,126.652428 
	C150.429459,136.342667 157.677536,145.712265 164.968048,155.429108 
	C172.901215,166.114624 180.791946,176.452896 188.901337,187.082947 
	C190.253448,188.772842 191.404099,190.157410 192.517639,191.571213 
	C199.721832,200.718018 206.917923,209.871201 214.202423,219.346863 
	C215.430420,221.299347 216.517212,222.969666 217.724045,224.548203 
	C224.734024,233.716934 231.772278,242.864075 239.008240,252.288376 
	C242.569977,256.447571 245.924454,260.336914 248.943939,263.837860 
	C248.943939,198.849380 248.943939,133.902405 249.269653,68.816864 
	C257.686859,65.466202 265.778381,62.254108 273.869873,59.042015 
	C282.619049,74.200188 291.368195,89.358360 300.454315,105.108948 
	C307.378326,117.172020 313.965393,128.642685 320.552429,140.113342 
	C326.485382,150.008011 332.418365,159.902695 338.674866,170.363617 
	C345.534119,182.105652 352.069794,193.281433 358.605469,204.457214 
	C364.440460,214.452927 370.275452,224.448639 376.418152,235.055878 
	C382.092987,245.111023 387.460144,254.554657 392.827301,263.998291 
	C396.883850,270.816803 400.852783,277.689728 405.037933,284.428375 
	C406.832031,287.317169 407.004913,289.160675 404.404846,292.118866 
	C399.111481,298.141235 392.195801,301.063446 385.240479,304.105652 
	C379.919922,306.432831 374.374420,308.271759 369.155212,310.795715 
	C365.475128,312.575439 363.726837,311.070557 362.076416,308.140930 
	C359.880737,304.243439 357.559418,300.416779 355.200012,295.866089 
	C349.919159,285.573792 344.887085,275.886322 339.509216,266.394745 
	C328.140778,246.330215 316.590759,226.368576 305.117249,206.363571 
	C301.618378,200.262985 298.126099,194.158585 293.958252,186.881714 
	C293.958252,190.664291 293.958252,193.126297 293.897095,196.055939 
	C293.270599,207.346603 292.705231,218.169617 292.050232,229.436829 
	C291.565369,241.904144 291.170166,253.927292 290.609375,266.394501 
	C289.968628,281.751038 289.493408,296.663483 289.018219,311.575958 
	C288.432098,322.907928 287.845947,334.239868 287.208862,346.357178 
	C281.732941,349.820648 276.326172,352.537720 270.845673,355.096924 
	C270.443787,355.284607 269.509094,354.331299 268.759277,353.587585 
	C261.255737,344.843842 253.815125,336.420898 246.232178,327.674744 
	C240.339203,320.577240 234.644775,313.754150 228.817810,307.046173 
	C225.054718,302.714142 221.097397,298.550781 217.071594,293.976135 
	C209.304062,284.673431 201.692047,275.706451 193.978851,266.427856 
	C186.371124,257.245300 178.864563,248.374329 171.358002,239.503357 
	C170.920242,239.821121 170.482483,240.138870 170.044724,240.456635 
	C170.423660,242.671982 170.849945,244.880463 171.173172,247.103928 
	C172.452744,255.905838 173.700073,264.712463 174.812103,273.918640 
	C176.117264,285.890106 177.569656,297.460327 178.975937,309.452454 
	C179.315720,312.329712 179.750961,314.778473 180.079163,317.241516 
	C181.635300,328.919983 183.162262,340.602325 184.656693,352.719971 
	C185.718430,363.211823 186.823074,373.266968 187.867981,383.659790 
	C185.995941,385.514557 184.183670,387.031616 182.371399,388.548706 
z"/>
<path fill="#01A8F3" opacity="1.000000" stroke="none" 
	d="
M182.716568,388.815491 
	C184.183670,387.031616 185.995941,385.514557 188.249878,383.553864 
	C197.976730,379.597717 207.222870,375.977264 216.555618,372.595886 
	C233.951172,366.293304 251.397156,360.129822 268.822144,353.908447 
	C269.509094,354.331299 270.443787,355.284607 270.845673,355.096924 
	C276.326172,352.537720 281.732941,349.820648 287.271820,346.819153 
	C300.116241,341.424255 312.734650,336.044403 325.607269,331.363617 
	C339.841797,326.187561 354.305969,321.642303 368.687134,316.873718 
	C369.217773,316.697815 369.927948,317.063293 371.689545,317.381439 
	C367.139832,323.912720 363.469421,330.377380 358.646698,335.821259 
	C351.623840,343.748596 344.324890,351.614716 336.166016,358.316833 
	C314.191528,376.367828 289.258362,388.270569 261.066956,393.623138 
	C244.031387,396.857574 227.078033,397.388580 210.074066,395.241455 
	C200.956116,394.090118 192.058701,391.192139 182.716568,388.815491 
z"/>
<path fill="#01A8F3" opacity="1.000000" stroke="none" 
	d="
M143.014374,126.331787 
	C140.136673,122.988937 137.258957,119.646095 134.014648,115.780640 
	C130.018219,112.140099 126.388374,109.022163 122.758522,105.904236 
	C130.305756,100.369759 137.660202,94.545998 145.440231,89.360825 
	C161.806458,78.453171 180.080536,71.964226 199.309860,68.748642 
	C211.769516,66.665115 224.527603,66.366379 237.695679,65.817245 
	C238.300674,74.727539 238.361954,83.088486 238.063263,91.527863 
	C206.140305,103.181458 174.577347,114.756622 143.014374,126.331787 
z"/>
<path fill="#01A8F2" opacity="1.000000" stroke="none" 
	d="
M289.389404,311.431152 
	C289.493408,296.663483 289.968628,281.751038 290.932373,266.328491 
	C303.142578,261.504028 314.864227,257.189667 326.849365,253.057068 
	C334.487976,264.961029 341.863098,276.683197 349.238220,288.405396 
	C346.076935,293.725677 340.491913,294.735229 335.223694,296.452209 
	C321.480560,300.931244 307.790802,305.573914 294.071899,310.127563 
	C292.661926,310.595612 291.198944,310.903900 289.389404,311.431152 
z"/>
<path fill="#4C4846" opacity="1.000000" stroke="none" 
	d="
M238.423248,91.449432 
	C238.361954,83.088486 238.300674,74.727539 238.150940,65.944939 
	C238.160233,64.554245 238.257965,63.585201 238.854126,62.292908 
	C242.549667,64.298248 245.746796,66.626839 248.943939,68.955437 
	C248.943939,133.902405 248.943939,198.849380 248.943939,263.837860 
	C245.924454,260.336914 242.569977,256.447571 239.213654,251.903366 
	C239.226669,237.158325 239.241547,223.068130 239.375427,208.555130 
	C239.307953,195.417191 239.121460,182.702057 239.008850,169.524048 
	C238.971924,155.040268 238.861130,141.019379 238.828827,126.535873 
	C238.745972,114.531975 238.584610,102.990700 238.423248,91.449432 
z"/>
<path fill="#01A8F3" opacity="1.000000" stroke="none" 
	d="
M111.742027,217.463608 
	C100.503555,221.795975 89.275085,226.154572 78.020020,230.443405 
	C74.971039,231.605240 71.842186,232.557663 68.748978,233.603241 
	C65.807877,234.597443 64.356911,232.989212 64.658470,230.450287 
	C66.135445,218.014999 67.631546,205.569611 69.743980,193.234497 
	C70.091866,191.203064 73.263443,189.013016 75.602562,188.076630 
	C85.403862,184.153015 95.384964,180.678574 105.818359,177.332642 
	C106.811829,180.448700 107.287140,183.271683 107.752144,186.526062 
	C109.075233,197.126190 110.408630,207.294891 111.742027,217.463608 
z"/>
<path fill="#01A8F3" opacity="1.000000" stroke="none" 
	d="
M121.159027,293.059601 
	C110.762230,296.775116 100.318214,300.365601 89.991280,304.266113 
	C85.705742,305.884766 82.800995,306.143097 81.049965,300.820709 
	C78.067787,291.756134 74.530960,282.873901 71.220734,273.917419 
	C70.110001,270.912140 71.378853,269.316437 74.206757,268.278229 
	C87.880646,263.258209 101.521889,258.149261 115.679962,253.404861 
	C117.843170,266.845154 119.501099,279.952362 121.159027,293.059601 
z"/>
<path fill="#4D4B49" opacity="1.000000" stroke="none" 
	d="
M121.285728,293.451233 
	C119.501099,279.952362 117.843170,266.845154 116.042572,253.356476 
	C114.586189,241.440918 113.272476,229.906799 111.850395,217.918152 
	C110.408630,207.294891 109.075233,197.126190 108.084717,186.353180 
	C109.293503,184.241562 110.050102,182.655777 111.058632,181.250839 
	C111.922874,180.046921 113.075554,179.050049 114.100670,177.961609 
	C115.389397,186.614334 116.878670,195.242813 117.929245,203.924347 
	C121.074448,229.915405 123.874496,255.949020 127.139679,281.924500 
	C130.136169,305.762512 133.591827,329.542542 136.787903,353.355804 
	C138.859024,368.787292 140.835068,384.231567 142.812241,399.675446 
	C142.889465,400.278717 142.536179,400.937134 142.087463,401.819183 
	C132.928329,396.532593 133.140045,387.247650 132.054932,378.498871 
	C131.405212,373.260437 130.758041,368.021637 130.027451,361.963409 
	C128.321976,350.085846 126.698776,339.027924 125.075577,327.969971 
	C123.854523,316.594269 122.633476,305.218597 121.285728,293.451233 
z"/>
<path fill="#01A8F3" opacity="1.000000" stroke="none" 
	d="
M358.992676,204.329575 
	C352.069794,193.281433 345.534119,182.105652 338.948547,170.583511 
	C346.977966,167.324249 355.080109,164.472626 363.127991,161.475311 
	C367.910980,159.693970 372.608551,157.683273 378.380463,155.358459 
	C381.955383,165.027390 385.566193,174.191833 388.723022,183.510101 
	C391.561188,191.887756 391.347260,191.977600 383.029877,195.175339 
	C375.153931,198.203369 367.263794,201.194534 358.992676,204.329575 
z"/>
<path fill="#01A8F2" opacity="1.000000" stroke="none" 
	d="
M320.799622,139.806580 
	C313.965393,128.642685 307.378326,117.172020 300.657776,105.355865 
	C307.950806,102.295837 315.334778,99.452850 322.837830,96.969666 
	C324.436188,96.440666 327.068481,96.526672 328.203217,97.509010 
	C336.174255,104.409492 343.884460,111.611671 351.661957,118.735016 
	C353.592499,120.503181 355.463806,122.335953 358.612335,125.326126 
	C345.427307,130.300919 333.237061,134.900360 320.799622,139.806580 
z"/>
<path fill="#504E4C" opacity="1.000000" stroke="none" 
	d="
M114.086090,177.512634 
	C113.075554,179.050049 111.922874,180.046921 111.058632,181.250839 
	C110.050102,182.655777 109.293503,184.241562 108.095016,185.921783 
	C107.287140,183.271683 106.811829,180.448700 106.180000,177.260956 
	C104.693245,165.588409 103.363007,154.280624 101.987152,142.140747 
	C101.365875,137.490799 100.790215,133.672928 100.214554,129.855072 
	C100.159470,125.243675 100.104385,120.632278 100.583435,116.093834 
	C104.083427,118.781357 107.049271,121.395920 110.015121,124.010490 
	C109.531677,126.079132 108.447746,128.211685 108.660011,130.206284 
	C110.323761,145.840317 112.235931,161.447906 114.086090,177.512634 
z"/>
<path fill="#535656" opacity="1.000000" stroke="none" 
	d="
M349.494629,288.650574 
	C341.863098,276.683197 334.487976,264.961029 326.736023,252.705475 
	C320.629608,242.397461 314.899994,232.622818 309.092773,222.500427 
	C303.996216,213.297882 298.977234,204.443085 293.958252,195.588287 
	C293.958252,193.126297 293.958252,190.664291 293.958252,186.881714 
	C298.126099,194.158585 301.618378,200.262985 305.117249,206.363571 
	C316.590759,226.368576 328.140778,246.330215 339.509216,266.394745 
	C344.887085,275.886322 349.919159,285.573792 355.075562,295.541443 
	C353.279175,293.572144 351.515106,291.233948 349.494629,288.650574 
z"/>
<path fill="#02A8F1" opacity="1.000000" stroke="none" 
	d="
M124.710571,328.030304 
	C126.698776,339.027924 128.321976,350.085846 129.907135,361.559326 
	C123.541267,356.174255 117.244705,350.339020 110.869194,344.591339 
	C108.536331,342.488220 106.016174,340.592834 103.581459,338.602722 
	C103.727676,337.908783 103.873901,337.214844 104.020119,336.520905 
	C110.795265,333.710815 117.570412,330.900726 124.710571,328.030304 
z"/>
<path fill="#01A7F1" opacity="1.000000" stroke="none" 
	d="
M392.954102,263.608093 
	C387.460144,254.554657 382.092987,245.111023 376.598450,235.310989 
	C381.604492,232.918259 386.745850,230.901642 391.868591,228.838821 
	C395.411102,227.412323 396.866150,228.669189 396.467621,232.339249 
	C395.349731,242.633347 394.211243,252.925186 392.954102,263.608093 
z"/>
<path fill="#535454" opacity="1.000000" stroke="none" 
	d="
M249.269653,68.816864 
	C245.746796,66.626839 242.549667,64.298248 238.958221,61.941265 
	C241.768051,59.874607 244.901917,57.711334 248.207413,55.853424 
	C249.746033,54.988613 251.670944,54.844414 253.329727,54.154663 
	C264.386261,49.557163 264.718140,49.608646 273.763489,58.722191 
	C265.778381,62.254108 257.686859,65.466202 249.269653,68.816864 
z"/>
<path fill="#555452" opacity="1.000000" stroke="none" 
	d="
M110.389069,123.953712 
	C107.049271,121.395920 104.083427,118.781357 100.972260,115.827026 
	C107.938713,112.402306 115.050491,109.317329 122.460396,106.068298 
	C126.388374,109.022163 130.018219,112.140099 133.754181,115.551575 
	C126.161201,118.529060 118.462105,121.212997 110.389069,123.953712 
z"/>
<path fill="#0DAAF0" opacity="1.000000" stroke="none" 
	d="
M99.960144,130.102051 
	C100.790215,133.672928 101.365875,137.490799 101.897804,141.739243 
	C98.151169,143.252045 94.448265,144.334259 90.745361,145.416473 
	C90.478317,145.039825 90.211266,144.663162 89.944221,144.286514 
	C93.198059,139.640686 96.451897,134.994858 99.960144,130.102051 
z"/>
<path fill="#FCFDFE" opacity="1.000000" stroke="none" 
	d="
M238.063263,91.527863 
	C238.584610,102.990700 238.745972,114.531975 238.502808,126.620865 
	C229.149612,130.993011 220.326599,135.152573 211.224091,138.566925 
	C195.884613,144.320786 180.367828,149.601913 164.925613,155.081863 
	C157.677536,145.712265 150.429459,136.342667 143.097870,126.652435 
	C174.577347,114.756622 206.140305,103.181458 238.063263,91.527863 
z"/>
<path fill="#01A8F3" opacity="1.000000" stroke="none" 
	d="
M164.968048,155.429108 
	C180.367828,149.601913 195.884613,144.320786 211.224091,138.566925 
	C220.326599,135.152573 229.149612,130.993011 238.424316,127.083496 
	C238.861130,141.019379 238.971924,155.040268 238.581177,169.526428 
	C235.170410,170.518402 232.117111,170.647064 229.376266,171.639038 
	C215.766510,176.564743 202.239090,181.718048 188.682678,186.791168 
	C180.791946,176.452896 172.901215,166.114624 164.968048,155.429108 
z"/>
<path fill="#FBFDFE" opacity="1.000000" stroke="none" 
	d="
M268.759277,353.587585 
	C251.397156,360.129822 233.951172,366.293304 216.555618,372.595886 
	C207.222870,375.977264 197.976730,379.597717 188.309631,383.216187 
	C186.823074,373.266968 185.718430,363.211823 185.021851,352.593781 
	C195.205688,348.184326 204.983780,344.343658 214.756592,340.489594 
	C225.298462,336.332245 235.835419,332.162354 246.374512,327.997955 
	C253.815125,336.420898 261.255737,344.843842 268.759277,353.587585 
z"/>
<path fill="#01A8F2" opacity="1.000000" stroke="none" 
	d="
M246.232178,327.674744 
	C235.835419,332.162354 225.298462,336.332245 214.756592,340.489594 
	C204.983780,344.343658 195.205688,348.184326 185.064758,352.157104 
	C183.162262,340.602325 181.635300,328.919983 180.079163,317.241516 
	C179.750961,314.778473 179.315720,312.329712 179.360474,309.415527 
	C192.269791,304.075073 204.748459,299.193451 217.227112,294.311829 
	C221.097397,298.550781 225.054718,302.714142 228.817810,307.046173 
	C234.644775,313.754150 240.339203,320.577240 246.232178,327.674744 
z"/>
<path fill="#FBFDFE" opacity="1.000000" stroke="none" 
	d="
M188.901321,187.082947 
	C202.239090,181.718048 215.766510,176.564743 229.376266,171.639038 
	C232.117111,170.647064 235.170410,170.518402 238.507309,169.989319 
	C239.121460,182.702057 239.307953,195.417191 239.053497,208.566299 
	C230.447266,212.340958 222.281967,215.681610 214.116669,219.022278 
	C206.917923,209.871201 199.721832,200.718018 192.517639,191.571213 
	C191.404099,190.157410 190.253448,188.772842 188.901321,187.082947 
z"/>
<path fill="#FAFCFD" opacity="1.000000" stroke="none" 
	d="
M217.071594,293.976135 
	C204.748459,299.193451 192.269791,304.075073 179.406586,308.993591 
	C177.569656,297.460327 176.117264,285.890106 175.213562,273.884827 
	C181.868195,271.212952 187.974121,268.976196 194.080032,266.739441 
	C201.692047,275.706451 209.304062,284.673431 217.071594,293.976135 
z"/>
<path fill="#FBFCFD" opacity="1.000000" stroke="none" 
	d="
M309.170380,222.848175 
	C314.899994,232.622818 320.629608,242.397461 326.472565,252.523697 
	C314.864227,257.189667 303.142578,261.504028 291.097931,265.884399 
	C291.170166,253.927292 291.565369,241.904144 292.396484,229.359604 
	C298.278381,226.841537 303.724396,224.844864 309.170380,222.848175 
z"/>
<path fill="#02A5EE" opacity="1.000000" stroke="none" 
	d="
M214.202423,219.346863 
	C222.281967,215.681610 230.447266,212.340958 238.934494,208.989120 
	C239.241547,223.068130 239.226669,237.158325 239.006378,251.633514 
	C231.772278,242.864075 224.734024,233.716934 217.724045,224.548203 
	C216.517212,222.969666 215.430420,221.299347 214.202423,219.346863 
z"/>
<path fill="#03A6EE" opacity="1.000000" stroke="none" 
	d="
M193.978851,266.427856 
	C187.974121,268.976196 181.868195,271.212952 175.360809,273.483521 
	C173.700073,264.712463 172.452744,255.905838 171.173172,247.103928 
	C170.849945,244.880463 170.423660,242.671982 170.044724,240.456635 
	C170.482483,240.138870 170.920242,239.821121 171.358002,239.503357 
	C178.864563,248.374329 186.371124,257.245300 193.978851,266.427856 
z"/>
<path fill="#02A5EE" opacity="1.000000" stroke="none" 
	d="
M309.092773,222.500427 
	C303.724396,224.844864 298.278381,226.841537 292.486145,228.915436 
	C292.705231,218.169617 293.270599,207.346603 293.897095,196.055939 
	C298.977234,204.443085 303.996216,213.297882 309.092773,222.500427 
z"/>
</svg>